<svg width="16" height="16" viewBox="0 0 16 16" fill="none" xmlns="http://www.w3.org/2000/svg">
<path d="M7.69258 0.701172C6.68237 0.701172 5.68206 0.900146 4.74875 1.28673C3.81545 1.67332 2.96742 2.23995 2.2531 2.95427C0.810465 4.39691 0 6.35355 0 8.39375C0 11.7939 2.20777 14.6786 5.26172 15.7017C5.64635 15.7632 5.76943 15.5248 5.76943 15.3171V14.017C3.63859 14.4786 3.18473 12.9862 3.18473 12.9862C2.83087 12.0939 2.33085 11.8554 2.33085 11.8554C1.63083 11.3785 2.3847 11.3939 2.3847 11.3939C3.15396 11.4477 3.56166 12.1862 3.56166 12.1862C4.23092 13.3555 5.36172 13.0093 5.8002 12.8247C5.86943 12.3247 6.06944 11.9862 6.28483 11.7939C4.57708 11.6016 2.78471 10.94 2.78471 8.00912C2.78471 7.15524 3.07703 6.4706 3.57705 5.92443C3.50012 5.73212 3.23088 4.93209 3.65397 3.89359C3.65397 3.89359 4.30015 3.68589 5.76943 4.67823C6.37715 4.509 7.03871 4.42438 7.69258 4.42438C8.34644 4.42438 9.00801 4.509 9.61572 4.67823C11.085 3.68589 11.7312 3.89359 11.7312 3.89359C12.1543 4.93209 11.885 5.73212 11.8081 5.92443C12.3081 6.4706 12.6004 7.15524 12.6004 8.00912C12.6004 10.9477 10.8004 11.5939 9.08493 11.7862C9.36187 12.0246 9.61572 12.4939 9.61572 13.2093V15.3171C9.61572 15.5248 9.7388 15.7709 10.1311 15.7017C13.1851 14.6709 15.3852 11.7939 15.3852 8.39375C15.3852 7.38354 15.1862 6.38323 14.7996 5.44993C14.413 4.51662 13.8464 3.6686 13.132 2.95427C12.4177 2.23995 11.5697 1.67332 10.6364 1.28673C9.70309 0.900146 8.70278 0.701172 7.69258 0.701172Z" fill="white"/>
</svg>
