<svg width="16" height="16" viewBox="0 0 16 16" fill="none" xmlns="http://www.w3.org/2000/svg">
<path d="M13.4374 0.919678C13.8669 0.919678 14.2788 1.0903 14.5825 1.39402C14.8862 1.69773 15.0569 2.10965 15.0569 2.53917V13.8756C15.0569 14.3051 14.8862 14.717 14.5825 15.0207C14.2788 15.3245 13.8669 15.4951 13.4374 15.4951H2.10093C1.67142 15.4951 1.2595 15.3245 0.955783 15.0207C0.65207 14.717 0.481445 14.3051 0.481445 13.8756V2.53917C0.481445 2.10965 0.65207 1.69773 0.955783 1.39402C1.2595 1.0903 1.67142 0.919678 2.10093 0.919678H13.4374ZM13.0325 13.4707V9.17907C13.0325 8.47896 12.7544 7.80753 12.2593 7.31248C11.7643 6.81742 11.0928 6.53931 10.3927 6.53931C9.70444 6.53931 8.90279 6.96037 8.51411 7.59197V6.69316H6.25493V13.4707H8.51411V9.47868C8.51411 8.85518 9.01616 8.34504 9.63966 8.34504C9.94032 8.34504 10.2287 8.46447 10.4413 8.67707C10.6539 8.88967 10.7733 9.17802 10.7733 9.47868V13.4707H13.0325ZM3.62326 5.42186C3.98405 5.42186 4.33006 5.27853 4.58518 5.02342C4.8403 4.7683 4.98363 4.42228 4.98363 4.06149C4.98363 3.30842 4.37632 2.69302 3.62326 2.69302C3.26031 2.69302 2.91224 2.8372 2.6556 3.09383C2.39896 3.35047 2.25479 3.69855 2.25479 4.06149C2.25479 4.81455 2.87019 5.42186 3.62326 5.42186ZM4.7488 13.4707V6.69316H2.50581V13.4707H4.7488Z" fill="white"/>
</svg>
