<svg width="2583" height="2583" viewBox="0 0 2583 2583" fill="none" xmlns="http://www.w3.org/2000/svg">
<path d="M2057.43 806.406C2085.18 850.269 2090.25 905.617 2075.59 968.207C2060.93 1030.8 2026.54 1100.59 1975.43 1173.28C1873.2 1318.66 1704.13 1475.54 1492.44 1609.43C1280.75 1743.32 1066.56 1828.86 891.401 1858.92C803.821 1873.96 726.024 1875.12 663.187 1861.54C600.353 1847.96 552.518 1819.66 524.775 1775.8C497.032 1731.94 491.96 1676.59 506.62 1614C521.28 1551.41 555.666 1481.61 606.779 1408.92C709.004 1263.55 878.073 1106.67 1089.76 972.777C1301.45 838.884 1515.65 753.35 1690.81 723.284C1778.39 708.251 1856.18 707.09 1919.02 720.666C1981.85 734.242 2029.69 762.544 2057.43 806.406Z" stroke="url(#paint0_linear_222_695)"/>
<path d="M2065.78 819.854C2092.75 864.194 2096.85 919.623 2081.1 981.948C2065.35 1044.27 2029.75 1113.46 1977.38 1185.25C1872.63 1328.82 1700.85 1482.72 1486.86 1612.9C1272.86 1743.07 1057.21 1824.86 881.553 1851.86C793.723 1865.36 715.918 1865.17 653.328 1850.49C590.741 1835.82 543.406 1806.69 516.433 1762.35C489.46 1718.01 485.355 1662.58 501.105 1600.26C516.855 1537.93 552.454 1468.75 604.828 1396.96C709.574 1253.39 881.355 1099.49 1095.35 969.311C1309.35 839.133 1525 757.35 1700.65 730.346C1788.48 716.844 1866.29 717.041 1928.88 731.712C1991.47 746.382 2038.8 775.514 2065.78 819.854Z" stroke="url(#paint1_linear_222_695)"/>
<path d="M2073.88 833.446C2100.08 878.25 2103.22 933.741 2086.38 995.782C2069.54 1057.82 2032.74 1126.38 1979.12 1197.24C1871.89 1338.96 1697.45 1489.84 1481.21 1616.26C1264.98 1742.69 1047.93 1820.69 871.83 1844.63C783.778 1856.59 705.989 1855.04 643.664 1839.28C581.342 1823.52 534.523 1793.56 508.328 1748.76C482.133 1703.96 478.995 1648.46 495.831 1586.42C512.667 1524.38 549.468 1455.83 603.086 1384.97C710.322 1243.25 884.763 1092.37 1101 965.943C1317.23 839.52 1534.28 761.513 1710.38 737.579C1798.43 725.612 1876.22 727.167 1938.55 742.927C2000.87 758.688 2047.69 788.642 2073.88 833.446Z" stroke="url(#paint2_linear_222_695)"/>
<path d="M2081.75 847.177C2107.16 892.432 2109.33 947.97 2091.41 1009.71C2073.5 1071.45 2035.5 1139.35 1980.66 1209.26C1870.96 1349.09 1693.92 1496.9 1475.51 1619.53C1257.1 1742.16 1038.72 1816.37 862.232 1837.23C773.985 1847.65 696.234 1844.74 634.194 1827.9C572.157 1811.05 525.868 1780.28 500.459 1735.03C475.049 1689.78 472.881 1634.24 490.796 1572.5C508.712 1510.76 546.704 1442.86 601.551 1372.95C711.244 1233.12 888.292 1085.31 1106.7 962.676C1325.11 840.046 1543.48 765.839 1719.98 744.982C1808.22 734.553 1885.97 737.465 1948.01 754.311C2010.05 771.157 2056.34 801.923 2081.75 847.177Z" stroke="url(#paint3_linear_222_695)"/>
<path d="M2089.38 861.042C2113.99 906.733 2115.19 962.301 2096.2 1023.72C2077.21 1085.13 2038.04 1152.36 1981.98 1221.31C1869.86 1359.2 1690.26 1503.9 1469.75 1622.7C1249.23 1741.5 1029.6 1811.88 852.768 1829.66C764.352 1838.54 686.664 1834.27 624.927 1816.35C563.193 1798.42 517.448 1766.85 492.833 1721.16C468.217 1675.47 467.018 1619.9 486.008 1558.49C504.999 1497.07 544.171 1429.85 600.23 1360.9C712.346 1223.01 891.946 1078.31 1112.46 959.506C1332.98 840.707 1552.61 770.322 1729.44 752.548C1817.86 743.661 1895.55 747.93 1957.28 765.856C2019.02 783.782 2064.76 815.352 2089.38 861.042Z" stroke="url(#paint4_linear_222_695)"/>
<path d="M2096.76 875.04C2120.58 921.154 2120.8 976.734 2100.75 1037.81C2080.69 1098.88 2040.35 1165.42 1983.09 1233.37C1868.59 1369.29 1686.49 1510.83 1463.93 1625.77C1241.38 1740.7 1020.55 1807.24 843.434 1821.93C754.877 1829.27 677.275 1823.64 615.861 1804.64C554.449 1785.64 509.262 1753.28 485.448 1707.17C461.633 1661.05 461.404 1605.47 481.463 1544.4C501.523 1483.32 541.862 1416.79 599.115 1348.83C713.622 1212.92 895.72 1071.37 1118.27 956.44C1340.83 841.506 1561.66 774.966 1738.77 760.281C1827.33 752.938 1904.93 758.562 1966.35 777.563C2027.76 796.563 2072.95 828.927 2096.76 875.04Z" stroke="url(#paint5_linear_222_695)"/>
<path d="M2103.9 889.165C2126.91 935.687 2126.16 991.263 2105.04 1051.98C2083.92 1112.69 2042.43 1178.51 1983.99 1245.46C1867.13 1379.36 1682.59 1517.7 1458.07 1628.73C1233.54 1739.76 1011.58 1802.44 834.238 1814.03C745.566 1819.83 668.075 1812.85 607.001 1792.78C545.931 1772.71 501.315 1739.57 478.309 1693.04C455.304 1646.52 456.044 1590.94 477.166 1530.23C498.289 1469.51 539.783 1403.7 598.214 1336.75C715.074 1202.85 899.615 1064.51 1124.14 953.475C1348.67 842.444 1570.63 779.767 1747.97 768.176C1836.64 762.38 1914.13 769.357 1975.21 789.427C2036.28 809.496 2080.89 842.643 2103.9 889.165Z" stroke="url(#paint6_linear_222_695)"/>
<path d="M2110.79 903.412C2132.98 950.328 2131.27 1005.88 2109.09 1066.22C2086.91 1126.56 2044.28 1191.64 1984.69 1257.56C1865.51 1389.4 1678.58 1524.5 1452.15 1631.6C1225.72 1738.69 1002.7 1797.48 825.181 1805.98C736.422 1810.23 659.063 1801.9 598.35 1780.77C537.639 1759.63 493.609 1725.71 471.418 1678.8C449.228 1631.88 450.938 1576.33 473.117 1515.99C495.296 1455.65 537.932 1390.57 597.522 1324.65C716.702 1192.81 903.629 1057.71 1130.06 950.613C1356.49 843.517 1579.51 784.724 1757.03 776.229C1845.79 771.981 1923.14 780.31 1983.86 801.443C2044.57 822.575 2088.6 856.495 2110.79 903.412Z" stroke="url(#paint7_linear_222_695)"/>
<path d="M2117.43 917.776C2138.8 965.073 2136.12 1020.59 2112.89 1080.53C2089.66 1140.47 2045.9 1204.8 1985.17 1269.67C1863.7 1399.41 1674.45 1531.23 1446.18 1634.35C1217.92 1737.48 993.906 1792.37 816.268 1797.77C727.447 1800.47 650.246 1790.79 589.911 1768.6C529.578 1746.41 486.146 1711.73 464.778 1664.43C443.41 1617.14 446.09 1561.62 469.318 1501.68C492.547 1441.74 536.312 1377.41 597.044 1312.54C718.506 1182.8 907.763 1050.98 1136.03 947.854C1364.29 844.726 1588.3 789.834 1765.94 784.438C1854.76 781.741 1931.96 791.418 1992.3 813.607C2052.63 835.796 2096.07 870.479 2117.43 917.776Z" stroke="url(#paint8_linear_222_695)"/>
<path d="M2123.82 932.255C2144.36 979.917 2140.71 1035.38 2116.44 1094.9C2092.17 1154.43 2047.29 1217.99 1985.43 1281.79C1861.73 1409.38 1670.2 1537.88 1440.17 1637.01C1210.14 1736.14 985.202 1787.11 807.496 1789.41C718.642 1790.55 641.622 1779.53 581.683 1756.29C521.746 1733.05 478.927 1697.62 458.387 1649.95C437.848 1602.29 441.496 1546.83 465.767 1487.3C490.038 1427.78 534.919 1364.22 596.774 1300.42C720.482 1172.82 912.011 1044.33 1142.04 945.2C1372.07 846.071 1597.01 795.097 1774.71 792.803C1863.57 791.656 1940.59 802.679 2000.53 825.918C2060.46 849.156 2103.28 884.592 2123.82 932.255Z" stroke="url(#paint9_linear_222_695)"/>
<path d="M2129.96 946.842C2149.66 994.855 2145.05 1050.24 2119.74 1109.34C2094.43 1168.43 2048.45 1231.2 1985.49 1293.91C1859.57 1419.32 1665.83 1544.46 1434.11 1639.56C1202.38 1734.66 976.592 1781.7 798.873 1780.89C710.013 1780.49 633.197 1768.12 573.672 1743.84C514.15 1719.56 471.956 1683.38 452.251 1635.37C432.547 1587.35 437.162 1531.96 462.468 1472.87C487.775 1413.77 533.759 1351.01 596.717 1288.3C722.634 1162.88 916.375 1037.75 1148.1 942.651C1379.82 847.552 1605.62 800.511 1783.33 801.318C1872.19 801.722 1949.01 814.088 2008.54 838.369C2068.06 862.65 2110.25 898.828 2129.96 946.842Z" stroke="url(#paint10_linear_222_695)"/>
<path d="M2135.84 961.535C2154.7 1009.89 2149.12 1065.18 2122.79 1123.83C2096.45 1182.47 2049.38 1244.42 1985.34 1306.02C1857.25 1429.23 1661.36 1550.96 1428.01 1642C1194.66 1733.04 968.079 1776.13 790.402 1772.22C701.562 1770.27 624.973 1756.56 565.882 1731.25C506.792 1705.93 465.236 1669.02 446.372 1620.67C427.508 1572.32 433.09 1517.02 459.423 1458.38C485.758 1399.74 532.83 1337.79 596.873 1276.18C724.959 1152.98 920.855 1031.25 1154.2 940.209C1387.55 849.168 1614.13 806.075 1791.81 809.984C1880.65 811.939 1957.24 825.643 2016.33 850.96C2075.42 876.275 2116.98 913.185 2135.84 961.535Z" stroke="url(#paint11_linear_222_695)"/>
<path d="M2141.46 976.328C2159.48 1025 2152.93 1080.19 2125.58 1138.37C2098.23 1196.54 2050.08 1257.66 1984.97 1318.14C1854.75 1439.09 1656.76 1557.38 1421.86 1644.34C1186.96 1731.29 959.664 1770.42 782.081 1763.41C693.289 1759.91 616.951 1744.87 558.311 1718.52C499.672 1692.18 458.766 1654.55 440.749 1605.88C422.732 1557.21 429.278 1502.01 456.631 1443.84C483.985 1385.66 532.131 1324.54 597.24 1264.07C727.456 1143.12 925.447 1024.83 1160.35 937.873C1395.25 850.919 1622.55 811.787 1800.13 818.796C1888.92 822.3 1965.26 837.34 2023.9 863.684C2082.54 890.027 2123.45 927.655 2141.46 976.328Z" stroke="url(#paint12_linear_222_695)"/>
<path d="M2146.83 991.217C2163.99 1040.2 2156.48 1095.27 2128.12 1152.96C2099.75 1210.65 2050.55 1270.92 1984.39 1330.24C1852.08 1448.9 1652.06 1563.72 1415.68 1646.56C1179.29 1729.41 951.347 1764.56 773.915 1754.46C685.197 1749.4 609.133 1733.03 550.961 1705.67C492.792 1678.31 452.548 1639.97 435.384 1590.99C418.219 1542.01 425.727 1486.94 454.091 1429.25C482.456 1371.56 531.661 1311.29 597.816 1251.97C730.123 1133.31 930.148 1018.49 1166.53 935.645C1402.92 852.804 1630.86 817.645 1808.29 827.752C1897.01 832.806 1973.08 849.175 2031.25 876.538C2089.42 903.901 2129.66 942.238 2146.83 991.217Z" stroke="url(#paint13_linear_222_695)"/>
<path d="M2151.93 1006.2C2168.24 1055.47 2159.77 1110.4 2130.4 1167.58C2101.03 1224.77 2050.78 1284.17 1983.6 1342.34C1849.25 1458.67 1647.25 1569.98 1409.45 1648.68C1171.66 1727.39 943.137 1758.56 765.908 1745.36C677.292 1738.76 601.525 1721.06 543.84 1692.69C486.156 1664.32 446.588 1625.28 430.281 1576.01C413.974 1526.74 422.442 1471.81 451.808 1414.62C481.176 1357.44 531.425 1298.04 598.605 1239.87C732.963 1123.54 934.962 1012.23 1172.76 933.524C1410.55 854.821 1639.07 823.645 1816.3 836.848C1904.92 843.449 1980.68 861.143 2038.37 889.518C2096.05 917.891 2135.62 956.925 2151.93 1006.2Z" stroke="url(#paint14_linear_222_695)"/>
<path d="M2156.77 1021.26C2172.21 1070.81 2162.79 1125.59 2132.43 1182.25C2102.07 1238.92 2050.79 1297.43 1982.6 1354.42C1846.24 1468.38 1642.32 1576.15 1403.19 1650.69C1164.06 1725.24 935.03 1752.42 758.058 1736.12C669.571 1727.98 594.125 1708.96 536.943 1679.59C479.764 1650.21 440.883 1610.49 425.438 1560.95C409.993 1511.4 419.419 1456.62 449.779 1399.96C480.14 1343.29 531.419 1284.78 599.603 1227.79C735.971 1113.83 939.882 1006.05 1179.01 931.513C1418.14 856.973 1647.18 829.79 1824.15 846.083C1912.64 854.23 1988.08 873.244 2045.26 902.621C2102.44 931.997 2141.32 971.715 2156.77 1021.26Z" stroke="url(#paint15_linear_222_695)"/>
<path d="M2161.35 1036.41C2175.93 1086.22 2165.55 1140.83 2134.2 1196.95C2102.86 1253.08 2050.56 1310.69 1981.39 1366.47C1843.06 1478.04 1637.3 1582.24 1396.9 1652.6C1156.51 1722.95 927.035 1746.13 750.374 1726.75C662.043 1717.06 586.94 1696.74 530.28 1666.37C473.622 1636 435.44 1595.61 420.862 1545.8C406.284 1495.99 416.664 1441.38 448.009 1385.26C479.354 1329.13 531.646 1271.52 600.815 1215.73C739.151 1104.17 944.912 999.969 1185.31 929.612C1425.7 859.256 1655.17 836.075 1831.84 855.455C1920.17 865.144 1995.27 885.472 2051.93 915.842C2108.59 946.212 2146.77 986.602 2161.35 1036.41Z" stroke="url(#paint16_linear_222_695)"/>
<path d="M2165.66 1051.64C2179.37 1101.7 2168.04 1156.11 2135.72 1211.68C2103.4 1267.25 2050.11 1323.94 1979.97 1378.51C1839.71 1487.65 1632.16 1588.24 1390.58 1654.39C1148.99 1720.54 919.149 1739.71 742.854 1717.25C654.705 1706.02 579.968 1684.39 523.847 1653.03C467.727 1621.68 430.256 1580.63 416.55 1530.57C402.844 1480.51 414.175 1426.1 446.494 1370.53C478.814 1314.96 532.104 1258.27 602.236 1203.7C742.498 1094.56 950.046 993.971 1191.63 927.821C1433.22 861.671 1663.06 842.498 1839.36 864.958C1927.51 876.188 2002.24 897.823 2058.36 929.177C2114.48 960.531 2151.95 1001.58 2165.66 1051.64Z" stroke="url(#paint17_linear_222_695)"/>
<path d="M2169.71 1066.94C2182.54 1117.23 2170.26 1171.43 2136.97 1226.43C2103.69 1281.43 2049.42 1337.18 1978.34 1390.52C1836.2 1497.19 1626.93 1594.14 1384.22 1656.07C1141.52 1717.99 911.377 1733.15 735.5 1707.62C647.561 1694.85 573.213 1671.91 517.647 1639.59C462.084 1607.26 425.335 1565.56 412.504 1515.27C399.673 1464.98 411.953 1410.77 445.237 1355.78C478.522 1300.78 532.793 1245.03 603.866 1191.69C746.012 1085.02 955.283 988.064 1197.99 926.14C1440.69 864.216 1670.83 849.058 1846.71 874.591C1934.65 887.357 2009 910.294 2064.56 942.623C2120.13 974.951 2156.88 1016.65 2169.71 1066.94Z" stroke="url(#paint18_linear_222_695)"/>
<path d="M2173.48 1082.31C2185.44 1132.81 2172.21 1186.8 2137.97 1241.2C2103.73 1295.61 2048.5 1350.41 1976.5 1402.5C1832.52 1506.67 1621.59 1599.96 1377.84 1657.64C1134.09 1715.32 903.719 1726.46 728.315 1697.86C640.611 1683.56 566.675 1659.33 511.682 1626.03C456.691 1592.74 420.676 1550.41 408.725 1499.9C396.774 1449.4 409.997 1395.41 444.236 1341.01C478.476 1286.6 533.712 1231.8 605.705 1179.71C749.691 1075.53 960.622 982.249 1204.37 924.571C1448.12 866.892 1678.49 855.752 1853.89 884.351C1941.6 898.651 2015.53 922.881 2070.53 956.175C2125.52 989.468 2161.53 1031.8 2173.48 1082.31Z" stroke="url(#paint19_linear_222_695)"/>
<path d="M2176.99 1097.74C2188.06 1148.44 2173.9 1202.19 2138.71 1255.99C2103.53 1309.79 2047.35 1363.62 1974.45 1414.44C1828.67 1516.09 1616.14 1605.68 1371.43 1659.09C1126.71 1712.51 896.179 1719.63 721.301 1687.97C633.861 1672.14 560.359 1646.63 505.955 1612.38C451.554 1578.13 416.282 1535.18 405.215 1484.47C394.147 1433.76 408.311 1380.02 443.493 1326.22C478.678 1272.41 534.861 1218.59 607.753 1167.76C753.535 1066.12 966.062 976.528 1210.78 923.112C1455.5 869.696 1686.03 862.578 1860.91 894.234C1948.35 910.062 2021.85 935.579 2076.25 969.828C2130.65 1004.08 2165.93 1047.03 2176.99 1097.74Z" stroke="url(#paint20_linear_222_695)"/>
<path d="M2180.23 1113.23C2190.42 1164.12 2175.32 1217.61 2139.2 1270.79C2103.08 1323.97 2045.97 1376.81 1972.2 1426.35C1824.66 1525.44 1610.61 1611.31 1364.99 1660.44C1119.38 1709.58 888.762 1712.67 714.462 1677.97C627.312 1660.62 554.266 1633.82 500.469 1598.63C446.673 1563.44 412.157 1519.87 401.976 1468.98C391.795 1418.09 406.894 1364.6 443.011 1311.42C479.129 1258.24 536.243 1205.4 610.011 1155.86C757.544 1056.77 971.603 970.904 1217.22 921.767C1462.83 872.631 1693.45 869.537 1867.75 904.24C1954.9 921.592 2027.94 948.388 2081.74 983.581C2135.54 1018.77 2170.05 1062.34 2180.23 1113.23Z" stroke="url(#paint21_linear_222_695)"/>
<path d="M2183.2 1128.77C2192.49 1179.83 2176.46 1233.05 2139.42 1285.59C2102.38 1338.14 2044.35 1389.97 1969.73 1438.22C1820.49 1534.71 1604.97 1616.83 1358.54 1661.67C1112.1 1706.52 881.465 1705.59 707.798 1667.85C620.963 1648.98 548.397 1620.91 495.221 1584.78C442.048 1548.66 408.298 1504.5 399.006 1453.44C389.715 1402.38 405.746 1349.16 442.785 1296.62C479.825 1244.07 537.853 1192.24 612.474 1143.99C761.715 1047.49 977.239 965.376 1223.67 920.533C1470.11 875.691 1700.74 876.623 1874.41 914.362C1961.24 933.232 2033.81 961.299 2086.99 997.426C2140.16 1033.55 2173.91 1077.71 2183.2 1128.77Z" stroke="url(#paint22_linear_222_695)"/>
<path d="M2185.9 1144.37C2194.3 1195.58 2177.34 1248.51 2139.39 1300.4C2101.44 1352.29 2042.52 1403.1 1967.06 1450.04C1816.16 1543.92 1599.24 1622.26 1352.06 1662.8C1104.88 1703.33 874.294 1698.37 701.312 1657.61C614.82 1637.23 542.755 1607.9 490.218 1570.85C437.683 1533.8 404.708 1489.06 396.309 1437.84C387.911 1386.63 404.868 1333.7 442.818 1281.81C480.77 1229.92 539.694 1179.11 615.145 1132.17C766.047 1038.29 982.972 959.948 1230.15 919.413C1477.33 878.878 1707.91 883.835 1880.9 924.6C1967.39 944.983 2039.46 974.312 2091.99 1011.36C2144.53 1048.41 2177.5 1093.15 2185.9 1144.37Z" stroke="url(#paint23_linear_222_695)"/>
<path d="M2188.32 1160.01C2195.83 1211.36 2177.95 1263.99 2139.1 1315.2C2100.25 1366.42 2040.45 1416.19 1964.19 1461.81C1811.67 1553.04 1593.41 1627.59 1345.56 1663.8C1097.71 1700.02 867.249 1691.04 695.004 1647.26C608.881 1625.37 537.339 1594.79 485.456 1556.83C433.576 1518.87 401.387 1473.56 393.884 1422.2C386.38 1370.85 404.258 1318.22 443.109 1267.01C481.96 1215.79 541.762 1166.01 618.021 1120.4C770.538 1029.17 988.798 954.621 1236.65 918.406C1484.49 882.191 1714.96 891.172 1887.2 934.949C1973.33 956.838 2044.87 987.42 2096.75 1025.38C2148.63 1063.34 2180.82 1108.65 2188.32 1160.01Z" stroke="url(#paint24_linear_222_695)"/>
<path d="M2190.48 1175.68C2197.08 1227.16 2178.29 1279.47 2138.55 1330C2098.81 1380.53 2038.15 1429.25 1961.1 1473.53C1807.02 1562.09 1587.49 1632.81 1339.05 1664.7C1090.61 1696.58 860.333 1683.58 688.879 1636.8C603.151 1613.41 532.153 1581.59 480.942 1542.73C429.732 1503.87 398.339 1458 391.732 1406.53C385.126 1355.05 403.92 1302.74 443.658 1252.21C483.398 1201.68 544.059 1152.96 621.103 1108.68C775.189 1020.12 994.716 949.396 1243.16 917.512C1491.6 885.629 1721.87 898.63 1893.33 945.407C1979.06 968.795 2050.05 1000.62 2101.27 1039.48C2152.48 1078.34 2183.87 1124.21 2190.48 1175.68Z" stroke="url(#paint25_linear_222_695)"/>
<path d="M2192.35 1191.4C2198.06 1242.98 2178.36 1294.95 2137.74 1344.78C2097.13 1394.61 2035.62 1442.27 1957.82 1485.2C1802.21 1571.05 1581.48 1637.93 1332.52 1665.48C1083.56 1693.02 853.551 1676 682.939 1626.24C597.633 1601.36 527.201 1568.3 476.675 1528.55C426.151 1488.8 395.563 1442.4 389.856 1390.81C384.149 1339.23 403.854 1287.25 444.468 1237.43C485.083 1187.59 546.585 1139.94 624.39 1097.01C779.998 1011.16 1000.73 944.275 1249.69 916.732C1498.65 889.189 1728.66 906.207 1899.27 955.969C1984.58 980.85 2055.01 1013.91 2105.54 1053.66C2156.06 1093.4 2186.65 1139.81 2192.35 1191.4Z" stroke="url(#paint26_linear_222_695)"/>
<path d="M2193.96 1207.14C2198.76 1258.82 2178.15 1310.44 2136.68 1359.55C2095.2 1408.66 2032.87 1455.24 1954.33 1496.8C1797.25 1579.93 1575.39 1642.95 1325.98 1666.14C1076.58 1689.34 846.9 1668.31 677.183 1615.57C592.324 1589.21 522.479 1554.92 472.655 1514.3C422.833 1473.68 393.059 1426.74 388.253 1375.07C383.448 1323.39 404.056 1271.77 445.533 1222.66C487.012 1173.54 549.337 1126.97 627.879 1085.41C784.962 1002.28 1006.82 939.261 1256.23 916.067C1505.63 892.873 1735.31 913.903 1905.03 966.635C1989.89 993.001 2059.73 1027.29 2109.56 1067.91C2159.38 1108.53 2189.15 1155.47 2193.96 1207.14Z" stroke="url(#paint27_linear_222_695)"/>
<path d="M2195.28 1222.91C2199.19 1274.67 2177.68 1325.92 2135.35 1374.3C2093.02 1422.68 2029.89 1468.16 1950.64 1508.35C1792.13 1588.72 1569.2 1647.86 1319.43 1666.69C1069.66 1685.53 840.384 1660.5 671.613 1604.81C587.226 1576.97 517.991 1541.47 468.883 1499.98C419.777 1458.5 390.828 1411.05 386.924 1359.3C383.021 1307.55 404.527 1256.29 446.855 1207.91C489.185 1159.53 552.313 1114.05 631.569 1073.86C790.078 993.493 1013.01 934.353 1262.78 915.516C1512.55 896.678 1741.82 921.713 1910.59 977.399C1994.98 1005.24 2064.22 1040.74 2113.32 1082.23C2162.43 1123.71 2191.38 1171.16 2195.28 1222.91Z" stroke="url(#paint28_linear_222_695)"/>
<path d="M2196.34 1238.7C2199.34 1290.51 2176.94 1341.38 2133.77 1389.02C2090.6 1436.66 2026.69 1481.03 1946.75 1519.82C1786.86 1597.41 1562.93 1652.65 1312.87 1667.13C1062.81 1681.61 834.006 1652.57 666.232 1593.95C582.345 1564.64 513.739 1527.94 465.363 1485.6C416.989 1443.26 388.872 1395.32 385.872 1343.51C382.873 1291.69 405.27 1240.82 448.436 1193.19C491.604 1145.55 555.516 1101.18 635.461 1062.38C795.349 984.793 1019.27 929.553 1269.34 915.077C1519.4 900.602 1748.2 929.634 1915.98 988.257C1999.86 1017.57 2068.47 1054.27 2116.85 1096.61C2165.22 1138.94 2193.34 1186.89 2196.34 1238.7Z" stroke="url(#paint29_linear_222_695)"/>
<path d="M2197.11 1254.51C2199.21 1306.37 2175.93 1356.84 2131.93 1403.71C2087.94 1450.59 2023.27 1493.84 1942.65 1531.23C1781.44 1606.02 1556.58 1657.34 1306.31 1667.45C1056.03 1677.56 827.766 1644.54 661.042 1583C577.678 1552.23 509.724 1514.33 462.094 1471.16C414.466 1427.99 387.19 1379.56 385.095 1327.7C383.001 1275.84 406.282 1225.37 450.273 1178.5C494.266 1131.62 558.942 1088.37 639.552 1050.98C800.77 976.188 1025.63 924.865 1275.9 914.755C1526.18 904.646 1754.44 937.667 1921.17 999.209C2004.53 1029.98 2072.48 1067.87 2120.11 1111.05C2167.74 1154.22 2195.02 1202.65 2197.11 1254.51Z" stroke="url(#paint30_linear_222_695)"/>
<path d="M2197.62 1270.33C2198.8 1322.21 2174.65 1372.27 2129.84 1418.37C2085.04 1464.47 2019.62 1506.58 1938.37 1542.57C1775.87 1614.53 1550.15 1661.92 1299.74 1667.66C1049.32 1673.4 821.671 1636.4 656.045 1571.96C573.232 1539.74 505.949 1500.66 459.08 1456.66C412.213 1412.66 385.786 1363.77 384.596 1311.88C383.407 1260 407.566 1209.94 452.368 1163.84C497.172 1117.74 562.594 1075.62 643.844 1039.64C806.343 967.678 1032.06 920.287 1282.47 914.547C1532.89 908.807 1760.54 945.807 1926.17 1010.25C2008.98 1042.47 2076.26 1081.54 2123.13 1125.54C2170 1169.54 2196.43 1218.44 2197.62 1270.33Z" stroke="url(#paint31_linear_222_695)"/>
<path d="M2197.84 1286.15C2198.12 1338.05 2173.09 1387.68 2127.49 1432.99C2081.89 1478.3 2015.74 1519.27 1933.88 1553.82C1770.15 1622.94 1543.64 1666.39 1293.16 1667.75C1042.69 1669.12 815.714 1628.16 651.239 1560.83C569 1527.17 502.41 1486.93 456.316 1442.12C410.223 1397.31 384.654 1347.96 384.37 1296.06C384.086 1244.16 409.115 1194.53 454.715 1149.22C500.317 1103.91 566.464 1062.94 648.329 1028.38C812.059 959.268 1038.57 915.823 1289.05 914.454C1539.52 913.086 1766.49 954.053 1930.97 1021.38C2013.21 1055.04 2079.8 1095.28 2125.89 1140.09C2171.98 1184.9 2197.55 1234.25 2197.84 1286.15Z" stroke="url(#paint32_linear_222_695)"/>
<path d="M2197.79 1301.98C2197.16 1353.87 2171.27 1403.05 2124.89 1447.56C2078.5 1492.07 2011.65 1531.88 1929.2 1565C1764.28 1631.25 1537.05 1670.74 1286.59 1667.73C1036.13 1664.73 809.904 1619.81 646.629 1549.62C564.99 1514.53 499.113 1473.13 453.808 1427.53C408.504 1381.92 383.8 1332.13 384.422 1280.23C385.044 1228.34 410.935 1179.15 457.319 1134.65C503.705 1090.14 570.556 1050.33 653.013 1017.21C817.924 950.958 1045.16 911.472 1295.62 914.475C1546.08 917.478 1772.3 962.401 1935.58 1032.58C2017.22 1067.68 2083.1 1109.07 2128.4 1154.68C2173.7 1200.29 2198.41 1250.08 2197.79 1301.98Z" stroke="url(#paint33_linear_222_695)"/>
<path d="M2197.46 1317.8C2195.93 1369.68 2169.19 1418.4 2122.03 1462.09C2074.88 1505.78 2007.34 1544.42 1924.32 1576.1C1758.28 1639.46 1530.39 1674.97 1280.02 1667.6C1029.65 1660.22 804.242 1611.36 642.216 1538.34C561.202 1501.83 496.057 1459.29 451.555 1412.89C407.055 1366.5 383.223 1316.29 384.751 1264.41C386.278 1212.54 413.024 1163.81 460.177 1120.12C507.333 1076.43 574.869 1037.79 657.891 1006.11C823.933 942.753 1051.82 907.239 1302.19 914.613C1552.56 921.986 1777.97 970.85 1939.99 1043.87C2021.01 1080.38 2086.15 1122.92 2130.66 1169.32C2175.16 1215.71 2198.99 1265.92 2197.46 1317.8Z" stroke="url(#paint34_linear_222_695)"/>
<path d="M2196.86 1333.61C2194.42 1385.45 2166.83 1433.7 2118.92 1476.56C2071.01 1519.43 2002.81 1556.88 1919.25 1587.1C1752.12 1647.56 1523.65 1679.09 1273.45 1667.35C1023.24 1655.6 798.726 1602.81 637.999 1526.97C557.635 1489.05 493.242 1445.38 449.557 1398.22C405.873 1351.06 382.921 1300.44 385.354 1248.6C387.787 1196.75 415.378 1148.51 463.287 1105.64C511.198 1062.78 579.398 1025.33 662.96 995.104C830.083 934.651 1058.56 903.12 1308.76 914.862C1558.97 926.605 1783.48 979.395 1944.21 1055.23C2024.57 1093.15 2088.97 1136.82 2132.65 1183.99C2176.34 1231.15 2199.29 1281.77 2196.86 1333.61Z" stroke="url(#paint35_linear_222_695)"/>
<path d="M2195.97 1349.41C2192.64 1401.2 2164.21 1448.96 2115.56 1490.98C2066.91 1533 1998.06 1569.26 1913.99 1598.02C1745.83 1655.55 1516.84 1683.09 1266.88 1666.98C1016.92 1650.87 793.36 1594.17 633.982 1515.54C554.292 1476.22 490.671 1431.43 447.815 1383.52C404.96 1335.6 382.896 1284.59 386.233 1232.8C389.57 1181 418 1133.24 466.65 1091.22C515.301 1049.2 584.144 1012.95 668.221 984.186C836.374 926.659 1065.36 899.12 1315.32 915.227C1565.29 931.334 1788.85 988.035 1948.22 1066.67C2027.92 1105.98 2091.54 1150.77 2134.39 1198.69C2177.25 1246.61 2199.31 1297.62 2195.97 1349.41Z" stroke="url(#paint36_linear_222_695)"/>
<path d="M2194.82 1365.2C2190.58 1416.92 2161.32 1464.18 2111.95 1505.34C2062.57 1546.51 1993.1 1581.55 1908.54 1608.85C1739.4 1663.43 1509.97 1686.97 1260.33 1666.5C1010.69 1646.03 788.148 1585.44 630.166 1504.04C551.174 1463.34 488.345 1417.44 446.331 1368.79C404.32 1320.13 383.149 1268.74 387.389 1217.01C391.63 1165.29 420.889 1118.03 470.265 1076.87C519.642 1035.7 589.107 1000.65 673.674 973.363C842.804 918.779 1072.24 895.241 1321.88 915.708C1571.52 936.175 1794.06 996.769 1952.04 1078.17C2031.03 1118.87 2093.87 1164.76 2135.88 1213.42C2177.89 1262.08 2199.06 1313.47 2194.82 1365.2Z" stroke="url(#paint37_linear_222_695)"/>
<path d="M2193.39 1380.96C2188.25 1432.6 2158.17 1479.34 2108.08 1519.64C2057.99 1559.93 1987.93 1593.76 1902.9 1619.57C1732.84 1671.2 1503.03 1690.73 1253.78 1665.91C1004.53 1641.09 783.089 1576.62 626.552 1492.47C548.282 1450.4 486.263 1403.42 445.105 1354.03C403.949 1304.65 383.678 1252.9 388.821 1201.25C393.964 1149.61 424.043 1102.87 474.13 1062.57C524.218 1022.28 594.284 988.448 679.314 962.636C849.372 911.012 1079.18 891.482 1328.43 916.303C1577.68 941.123 1799.12 1005.59 1955.66 1089.74C2033.93 1131.81 2095.95 1178.79 2137.11 1228.18C2178.26 1277.56 2198.53 1329.31 2193.39 1380.96Z" stroke="url(#paint38_linear_222_695)"/>
<path d="M2191.68 1396.69C2185.64 1448.24 2154.75 1494.44 2103.97 1533.86C2053.18 1573.28 1982.54 1605.88 1897.07 1630.2C1726.14 1678.85 1496.02 1694.36 1247.24 1665.2C998.468 1636.03 778.181 1567.71 623.137 1480.84C545.613 1437.41 484.424 1389.35 444.134 1339.26C403.846 1289.16 384.482 1237.07 390.525 1185.52C396.568 1133.97 427.459 1087.77 478.241 1048.35C529.025 1008.93 599.671 976.332 685.138 952.008C856.071 903.361 1086.19 887.844 1334.96 917.011C1583.74 946.178 1804.03 1014.5 1959.07 1101.37C2036.59 1144.8 2097.78 1192.86 2138.07 1242.95C2178.36 1293.05 2197.73 1345.14 2191.68 1396.69Z" stroke="url(#paint39_linear_222_695)"/>
<path d="M2189.7 1412.39C2182.76 1463.83 2151.07 1509.49 2099.61 1548.01C2048.14 1586.53 1976.94 1617.9 1891.06 1640.72C1719.3 1686.38 1488.95 1697.88 1240.72 1664.38C992.494 1630.87 773.433 1558.71 619.928 1469.16C543.175 1424.38 482.833 1375.26 443.424 1324.47C404.016 1273.68 385.564 1221.25 392.506 1169.82C399.448 1118.38 431.14 1072.72 482.602 1034.2C534.066 995.676 605.271 964.313 691.149 941.485C862.905 895.828 1093.26 884.329 1341.49 917.834C1589.72 951.338 1808.78 1023.49 1962.28 1113.05C2039.03 1157.83 2099.38 1206.95 2138.79 1257.74C2178.19 1308.53 2196.65 1360.96 2189.7 1412.39Z" stroke="url(#paint40_linear_222_695)"/>
<path d="M2187.45 1428.06C2179.61 1479.36 2147.13 1524.46 2095 1562.08C2042.87 1599.7 1971.13 1629.82 1884.87 1651.14C1712.34 1693.79 1481.82 1701.27 1234.22 1663.44C986.609 1625.61 768.841 1549.64 616.922 1457.42C540.962 1411.3 481.486 1361.14 442.97 1309.67C404.455 1258.2 386.92 1205.46 394.759 1154.15C402.597 1102.85 435.081 1057.75 487.208 1020.13C539.337 982.509 611.078 952.394 697.342 931.067C869.868 888.415 1100.39 880.938 1347.99 918.77C1595.6 956.601 1813.37 1032.57 1965.29 1124.79C2041.25 1170.91 2100.72 1221.07 2139.24 1272.54C2177.75 1324.01 2195.29 1376.75 2187.45 1428.06Z" stroke="url(#paint41_linear_222_695)"/>
<path d="M2184.92 1443.68C2176.19 1494.84 2142.92 1539.36 2090.15 1576.07C2037.37 1612.77 1965.12 1641.63 1878.49 1661.45C1705.25 1701.08 1474.64 1704.54 1227.73 1662.39C980.818 1620.24 764.409 1540.48 614.123 1445.62C538.979 1398.19 480.388 1347 442.776 1294.86C405.165 1242.73 388.553 1189.69 397.286 1138.53C406.019 1087.37 439.285 1042.85 492.06 1006.14C544.838 969.436 617.093 940.577 703.716 920.76C876.961 881.125 1107.57 877.672 1354.48 919.819C1601.39 961.966 1817.8 1041.72 1968.09 1136.59C2043.23 1184.02 2101.82 1235.21 2139.43 1287.35C2177.05 1339.48 2193.66 1392.52 2184.92 1443.68Z" stroke="url(#paint42_linear_222_695)"/>
<path d="M2182.12 1459.26C2172.5 1510.25 2138.46 1554.19 2085.05 1589.97C2031.64 1625.75 1958.9 1653.34 1871.94 1671.65C1698.03 1708.25 1467.39 1707.68 1221.26 1661.23C975.12 1614.78 760.136 1531.26 611.528 1433.79C537.224 1385.05 479.535 1332.84 442.839 1280.06C406.143 1227.28 390.46 1173.96 400.084 1122.96C409.709 1071.96 443.747 1028.02 497.155 992.239C550.565 956.461 623.313 928.868 710.269 910.565C884.178 873.959 1114.82 874.533 1360.95 920.982C1607.09 967.432 1822.07 1050.95 1970.68 1148.42C2044.98 1197.16 2102.67 1249.37 2139.37 1302.15C2176.07 1354.93 2191.75 1408.26 2182.12 1459.26Z" stroke="url(#paint43_linear_222_695)"/>
<path d="M2179.06 1474.78C2168.54 1525.6 2133.74 1568.94 2079.72 1603.78C2025.69 1638.62 1952.47 1664.94 1865.21 1681.72C1690.69 1715.29 1460.1 1710.69 1214.81 1659.95C969.521 1609.21 756.027 1521.95 609.143 1421.9C535.7 1371.88 478.932 1318.67 443.162 1265.26C407.393 1211.84 392.643 1158.25 403.156 1107.43C413.669 1056.61 448.469 1013.27 502.493 978.429C556.519 943.587 629.738 917.268 717 900.486C891.522 866.921 1122.11 871.519 1367.4 922.258C1612.69 972.996 1826.18 1060.26 1973.07 1160.31C2046.51 1210.33 2103.28 1263.54 2139.05 1316.95C2174.82 1370.37 2189.57 1423.96 2179.06 1474.78Z" stroke="url(#paint44_linear_222_695)"/>
<path d="M2175.71 1490.25C2164.31 1540.88 2128.76 1583.6 2074.14 1617.5C2019.51 1651.39 1945.85 1676.43 1858.3 1691.68C1683.22 1722.2 1452.75 1713.58 1208.38 1658.56C964.016 1603.55 752.078 1512.58 606.963 1409.98C534.404 1358.68 478.573 1304.49 443.741 1250.46C408.91 1196.43 395.097 1142.59 406.495 1091.96C417.893 1041.33 453.444 998.604 508.068 964.712C562.694 930.819 636.361 905.782 723.903 890.525C898.984 860.011 1129.46 868.633 1373.83 923.645C1618.19 978.656 1830.13 1069.63 1975.24 1172.23C2047.8 1223.53 2103.64 1277.72 2138.47 1331.75C2173.3 1385.78 2187.11 1439.62 2175.71 1490.25Z" stroke="url(#paint45_linear_222_695)"/>
<path d="M2172.1 1505.66C2159.82 1556.08 2123.53 1598.18 2068.32 1631.11C2013.11 1664.05 1939.02 1687.79 1851.23 1701.52C1675.64 1728.97 1445.35 1716.33 1201.98 1657.06C958.613 1597.8 748.295 1503.14 604.992 1398.02C533.34 1345.47 478.463 1290.31 444.579 1235.68C410.696 1181.05 397.825 1126.98 410.105 1076.55C422.386 1026.13 458.677 984.029 513.884 951.096C569.093 918.161 643.186 894.414 730.98 880.687C906.568 853.233 1136.86 865.876 1380.23 925.144C1623.59 984.412 1833.91 1079.07 1977.22 1184.18C2048.87 1236.74 2103.75 1291.9 2137.63 1346.53C2171.51 1401.16 2184.38 1455.23 2172.1 1505.66Z" stroke="url(#paint46_linear_222_695)"/>
<path d="M2168.23 1521C2155.07 1571.2 2118.05 1612.66 2062.27 1644.62C2006.5 1676.59 1932 1699.04 1843.98 1711.23C1667.94 1735.62 1437.9 1718.96 1195.61 1655.45C953.313 1591.95 744.678 1493.63 603.232 1386.03C532.508 1332.23 478.602 1276.13 445.676 1220.91C412.752 1165.7 400.826 1111.41 413.985 1061.21C427.143 1011.01 464.164 969.548 519.937 937.583C575.713 905.617 650.209 883.166 738.229 870.974C914.269 846.589 1144.31 863.249 1386.6 926.755C1628.9 990.261 1837.53 1088.58 1978.98 1196.18C2049.7 1249.98 2103.61 1306.08 2136.53 1361.3C2169.46 1416.51 2181.38 1470.8 2168.23 1521Z" stroke="url(#paint47_linear_222_695)"/>
<path d="M2164.08 1536.27C2150.05 1586.24 2112.31 1627.04 2055.99 1658.03C1999.66 1689.02 1924.78 1710.17 1836.56 1720.82C1660.13 1742.13 1430.42 1721.46 1189.26 1653.73C948.114 1586.01 741.227 1484.06 601.68 1374.01C531.906 1318.99 478.987 1261.95 447.031 1206.17C415.075 1150.39 404.099 1095.9 418.131 1045.94C432.164 995.971 469.902 955.166 526.225 924.179C582.55 893.192 657.426 872.044 745.646 861.39C922.085 840.081 1151.8 860.753 1392.95 928.478C1634.1 996.203 1840.98 1098.15 1980.53 1208.2C2050.3 1263.22 2103.22 1320.26 2135.18 1376.04C2167.14 1431.82 2178.11 1486.31 2164.08 1536.27Z" stroke="url(#paint48_linear_222_695)"/>
<path d="M2159.67 1551.47C2144.76 1601.18 2106.32 1641.32 2049.46 1671.32C1992.61 1701.32 1917.37 1721.16 1828.98 1730.27C1652.2 1748.5 1422.88 1723.82 1182.95 1651.9C943.018 1579.97 737.942 1474.44 600.337 1361.97C531.534 1305.73 479.619 1247.78 448.64 1191.45C417.663 1135.12 407.639 1080.45 422.542 1030.74C437.444 981.024 475.889 940.883 532.744 910.884C589.601 880.885 664.835 861.047 753.228 851.934C930.011 833.707 1159.33 858.386 1399.26 930.309C1639.19 1002.23 1844.27 1107.77 1981.87 1220.24C2050.67 1276.47 2102.59 1334.43 2133.57 1390.76C2164.55 1447.09 2174.57 1501.76 2159.67 1551.47Z" stroke="url(#paint49_linear_222_695)"/>
<path d="M2154.99 1566.59C2139.22 1616.03 2100.08 1655.5 2042.71 1684.5C1985.34 1713.5 1909.77 1732.02 1821.23 1739.59C1644.16 1754.73 1415.31 1726.05 1176.67 1649.95C938.03 1573.85 734.827 1464.75 599.205 1349.9C531.394 1292.47 480.498 1233.62 450.507 1176.76C420.518 1119.9 411.45 1065.07 427.218 1015.62C442.986 966.173 482.125 926.709 539.495 897.707C596.867 868.704 672.436 850.183 760.974 842.613C938.048 827.475 1166.9 856.152 1405.54 932.252C1644.18 1008.35 1847.38 1117.45 1983 1232.31C2050.81 1289.73 2101.71 1348.58 2131.7 1405.45C2161.69 1462.31 2170.76 1517.14 2154.99 1566.59Z" stroke="url(#paint50_linear_222_695)"/>
<path d="M2150.05 1581.62C2133.42 1630.79 2093.6 1669.56 2035.73 1697.56C1977.86 1725.55 1901.98 1742.75 1813.33 1748.78C1636.01 1760.82 1407.7 1728.16 1170.43 1647.9C933.15 1567.65 731.882 1455.02 598.286 1337.82C531.487 1279.21 481.626 1219.49 452.632 1162.11C423.639 1104.73 415.53 1049.75 432.158 1000.58C448.787 951.421 488.609 912.646 546.476 884.65C604.346 856.653 680.226 839.453 768.883 833.43C946.195 821.384 1174.51 854.051 1411.78 934.304C1649.06 1014.56 1850.33 1127.19 1983.92 1244.39C2050.72 1302.99 2100.58 1362.72 2129.58 1420.1C2158.57 1477.47 2166.68 1532.46 2150.05 1581.62Z" stroke="url(#paint51_linear_222_695)"/>
<path d="M2144.85 1596.57C2127.37 1645.44 2086.87 1683.51 2028.53 1710.49C1970.18 1737.47 1894.01 1753.35 1805.26 1757.82C1627.76 1766.77 1400.05 1730.12 1164.22 1645.74C928.377 1561.36 729.105 1445.24 597.575 1325.72C531.809 1265.96 482.998 1205.37 455.01 1147.5C427.023 1089.62 419.874 1034.5 437.358 985.638C454.842 936.772 495.335 898.699 553.682 871.717C612.031 844.733 688.2 828.861 776.949 824.386C954.444 815.437 1182.15 852.083 1417.99 936.464C1653.83 1020.85 1853.1 1136.97 1984.63 1256.49C2050.4 1316.25 2099.21 1376.84 2127.2 1434.71C2155.18 1492.58 2162.33 1547.7 2144.85 1596.57Z" stroke="url(#paint52_linear_222_695)"/>
<path d="M2139.39 1611.42C2121.05 1659.98 2079.9 1697.34 2021.1 1723.3C1962.28 1749.26 1885.85 1763.8 1797.04 1766.72C1619.41 1772.57 1392.38 1731.96 1158.05 1643.47C923.716 1554.99 726.501 1435.4 597.077 1313.61C532.364 1252.71 484.618 1191.28 457.644 1132.93C430.672 1074.57 424.486 1019.34 442.82 970.785C461.154 922.232 502.305 884.871 561.114 858.911C619.926 832.95 696.36 818.409 785.173 815.484C962.797 809.634 1189.83 850.248 1424.16 938.733C1658.49 1027.22 1855.71 1146.8 1985.13 1268.6C2049.84 1329.5 2097.59 1390.93 2124.57 1449.28C2151.54 1507.63 2157.72 1562.87 2139.39 1611.42Z" stroke="url(#paint53_linear_222_695)"/>
<path d="M2133.67 1626.18C2114.49 1674.4 2072.7 1711.04 2013.44 1735.97C1954.19 1760.9 1877.51 1774.11 1788.66 1775.48C1610.96 1778.23 1384.67 1733.66 1151.92 1641.1C919.168 1548.54 724.07 1425.53 596.791 1301.49C533.151 1239.48 486.484 1177.22 460.533 1118.4C434.583 1059.59 429.362 1004.26 448.54 956.029C467.719 907.803 509.516 871.166 568.769 846.236C628.025 821.306 704.701 808.101 793.552 806.726C971.251 803.977 1197.54 848.547 1430.29 941.108C1663.04 1033.67 1858.14 1156.68 1985.42 1280.71C2049.06 1342.73 2095.73 1404.99 2121.68 1463.8C2147.63 1522.62 2152.85 1577.95 2133.67 1626.18Z" stroke="url(#paint54_linear_222_695)"/>
<path d="M2127.69 1640.83C2107.68 1688.72 2065.25 1724.62 2005.57 1748.51C1945.89 1772.4 1868.99 1784.27 1780.13 1784.09C1602.41 1783.74 1376.93 1735.22 1145.83 1638.62C914.731 1542.01 721.81 1415.61 596.715 1289.37C534.167 1226.26 488.594 1163.19 463.673 1103.93C438.753 1044.68 434.499 989.259 454.516 941.375C474.534 893.491 516.964 857.589 576.643 833.697C636.325 809.805 713.22 797.94 802.081 798.116C979.801 798.469 1205.28 846.982 1436.38 943.591C1667.48 1040.2 1860.4 1166.6 1985.49 1292.83C2048.04 1355.95 2093.62 1419.01 2118.54 1478.27C2143.46 1537.53 2147.71 1592.95 2127.69 1640.83Z" stroke="url(#paint55_linear_222_695)"/>
<path d="M2121.46 1655.38C2100.61 1702.91 2057.56 1738.06 1997.48 1760.91C1937.39 1783.76 1860.3 1794.28 1771.45 1792.55C1593.76 1789.1 1369.17 1736.65 1139.79 1636.03C910.41 1535.4 719.724 1405.66 596.851 1277.26C535.414 1213.05 490.948 1149.21 467.066 1089.52C443.184 1029.84 439.897 974.355 460.747 926.828C481.597 879.301 524.647 844.144 584.735 821.298C644.824 798.451 721.915 787.93 810.759 789.657C988.446 793.111 1213.04 845.552 1442.42 946.179C1671.8 1046.81 1862.49 1176.55 1985.36 1304.95C2046.8 1369.15 2091.26 1433 2115.15 1492.69C2139.03 1552.37 2142.31 1607.85 2121.46 1655.38Z" stroke="url(#paint56_linear_222_695)"/>
<path d="M2114.98 1669.82C2093.3 1716.97 2049.64 1751.37 1989.17 1773.17C1928.69 1794.96 1851.43 1804.14 1762.62 1800.86C1585.02 1794.3 1361.38 1737.95 1133.79 1633.34C906.202 1528.72 717.81 1395.67 597.197 1265.14C536.89 1199.88 493.545 1135.27 470.708 1075.17C447.871 1015.08 445.554 959.549 467.23 912.393C488.906 865.237 532.563 830.837 593.04 809.043C653.519 787.248 730.782 778.074 819.582 781.351C997.182 787.906 1220.83 844.258 1448.42 948.874C1676 1053.49 1864.4 1186.54 1985.01 1317.07C2045.32 1382.33 2088.66 1446.94 2111.5 1507.04C2134.34 1567.13 2136.65 1622.66 2114.98 1669.82Z" stroke="url(#paint57_linear_222_695)"/>
<path d="M2108.24 1684.14C2085.75 1730.91 2041.5 1764.54 1980.65 1785.27C1919.8 1806.01 1842.39 1813.83 1753.66 1809.01C1576.2 1799.36 1353.57 1739.11 1127.84 1630.54C902.115 1521.96 716.073 1385.65 597.756 1253.04C538.597 1186.73 496.387 1121.37 474.602 1060.89C452.818 1000.41 451.469 944.842 473.965 898.071C496.462 851.3 540.712 817.668 601.56 796.932C662.411 776.196 739.821 768.372 828.551 773.199C1006.01 782.852 1228.64 843.099 1454.37 951.67C1680.09 1060.24 1866.14 1196.56 1984.45 1329.17C2043.61 1395.48 2085.82 1460.84 2107.61 1521.32C2129.39 1581.8 2130.74 1637.37 2108.24 1684.14Z" stroke="url(#paint58_linear_222_695)"/>
<path d="M2101.26 1698.34C2077.95 1744.71 2033.12 1777.56 1971.92 1797.23C1910.72 1816.91 1833.18 1823.38 1744.55 1817C1567.29 1804.25 1345.74 1740.13 1121.94 1627.64C898.146 1515.14 714.512 1375.6 598.527 1240.94C540.534 1173.61 499.471 1107.53 478.745 1046.67C458.02 985.821 457.641 930.242 480.95 883.871C504.259 837.5 549.09 804.645 610.291 784.974C671.493 765.303 749.029 758.831 837.661 765.206C1014.92 777.954 1236.47 842.078 1460.27 954.572C1684.06 1067.07 1867.7 1206.61 1983.68 1341.27C2041.68 1408.6 2082.74 1474.68 2103.47 1535.54C2124.19 1596.39 2124.57 1651.97 2101.26 1698.34Z" stroke="url(#paint59_linear_222_695)"/>
<path d="M2094.03 1712.42C2069.91 1758.37 2024.52 1790.44 1962.98 1809.04C1901.44 1827.64 1823.81 1832.76 1735.3 1824.84C1558.29 1809 1337.89 1741.02 1116.09 1624.63C894.294 1508.25 713.123 1365.52 599.506 1228.86C542.697 1160.53 502.794 1093.74 483.133 1032.53C463.473 971.327 464.064 915.75 488.179 869.793C512.294 823.836 557.691 791.768 619.226 773.169C680.763 754.569 758.399 749.451 846.907 757.371C1023.92 773.212 1244.31 841.192 1466.11 957.575C1687.91 1073.96 1869.08 1216.69 1982.7 1353.35C2039.51 1421.68 2079.41 1488.47 2099.07 1549.68C2118.73 1610.88 2118.14 1666.46 2094.03 1712.42Z" stroke="url(#paint60_linear_222_695)"/>
<path d="M2086.55 1726.36C2061.64 1771.89 2015.69 1803.16 1953.84 1820.69C1891.99 1838.21 1814.27 1841.97 1725.92 1832.51C1549.21 1813.58 1330.04 1741.76 1110.3 1621.53C890.566 1501.29 711.914 1355.42 600.7 1216.8C545.092 1147.49 506.36 1080.01 487.77 1018.47C469.181 956.932 470.743 901.373 495.656 855.844C520.569 810.315 566.519 779.044 628.369 761.522C690.221 743.999 767.935 740.237 856.291 749.701C1033 768.628 1252.17 840.444 1471.91 960.68C1691.64 1080.92 1870.3 1226.79 1981.51 1365.41C2037.12 1434.72 2075.85 1502.2 2094.44 1563.74C2113.03 1625.28 2111.47 1680.84 2086.55 1726.36Z" stroke="url(#paint61_linear_222_695)"/>
<path d="M2078.84 1740.18C2053.13 1785.27 2006.64 1815.73 1944.5 1832.17C1882.35 1848.61 1804.58 1851.02 1716.4 1840.01C1540.05 1818 1322.16 1742.37 1104.56 1618.32C886.958 1494.27 710.878 1345.3 602.1 1204.76C547.71 1134.49 510.162 1066.35 492.649 1004.49C475.137 942.639 477.668 887.116 503.372 842.028C529.076 796.941 575.565 766.477 637.711 750.037C699.859 733.596 777.627 731.191 865.805 742.195C1042.16 764.203 1260.04 839.834 1477.65 963.886C1695.25 1087.94 1871.33 1236.9 1980.11 1377.45C2034.5 1447.72 2072.05 1515.86 2089.56 1577.72C2107.07 1639.57 2104.54 1695.09 2078.84 1740.18Z" stroke="url(#paint62_linear_222_695)"/>
<path d="M2070.88 1753.86C2044.39 1798.49 1997.38 1828.14 1934.95 1843.49C1872.53 1858.85 1794.73 1859.89 1706.76 1847.35C1530.82 1822.27 1314.28 1742.85 1098.88 1615.02C883.474 1487.18 710.021 1335.17 603.712 1192.75C550.557 1121.54 514.204 1052.75 497.773 990.6C481.343 928.451 484.843 872.981 511.33 828.349C537.816 783.716 584.83 754.069 647.254 738.715C709.68 723.362 787.478 722.314 875.45 734.856C1051.39 759.938 1267.92 839.36 1483.33 967.192C1698.73 1095.02 1872.19 1247.04 1978.5 1389.46C2031.65 1460.67 2068 1529.46 2084.44 1591.61C2100.87 1653.76 2097.37 1709.23 2070.88 1753.86Z" stroke="url(#paint63_linear_222_695)"/>
<path d="M2062.68 1767.4C2035.42 1811.56 1987.9 1840.38 1925.22 1854.64C1862.53 1868.91 1784.73 1868.6 1696.99 1854.52C1521.51 1826.37 1306.4 1743.18 1093.25 1611.61C880.114 1480.04 709.341 1325.02 605.533 1180.77C553.629 1108.64 518.482 1039.23 503.139 976.8C487.796 914.373 492.263 858.973 519.524 814.81C546.786 770.647 594.31 741.824 656.992 727.562C719.677 713.3 797.481 713.611 885.221 727.686C1060.7 755.835 1275.81 839.024 1488.95 970.595C1702.09 1102.17 1872.87 1257.19 1976.67 1401.44C2028.58 1473.56 2063.73 1542.98 2079.07 1605.41C2094.41 1667.83 2089.95 1723.24 2062.68 1767.4Z" stroke="url(#paint64_linear_222_695)"/>
<path d="M2054.25 1780.79C2026.23 1824.47 1978.21 1852.46 1915.28 1865.63C1852.36 1878.79 1774.57 1877.12 1687.09 1861.52C1512.13 1830.31 1298.5 1743.38 1087.69 1608.11C876.879 1472.84 708.838 1314.86 607.564 1168.82C556.926 1095.8 522.996 1025.78 508.744 963.096C494.493 900.412 499.927 845.097 527.955 801.417C555.983 757.736 604.003 729.747 666.924 716.582C729.848 703.416 807.635 705.084 895.116 720.688C1070.07 751.896 1283.7 838.826 1494.52 974.098C1705.33 1109.37 1873.37 1267.34 1974.64 1413.39C2025.28 1486.41 2059.21 1556.43 2073.46 1619.11C2087.72 1681.8 2082.28 1737.11 2054.25 1780.79Z" stroke="url(#paint65_linear_222_695)"/>
<path d="M2045.59 1794.04C2016.81 1837.22 1968.3 1864.37 1905.16 1876.43C1842.02 1888.5 1764.27 1885.47 1677.08 1868.34C1502.69 1834.09 1290.61 1743.44 1082.19 1604.51C873.771 1465.58 708.512 1304.7 609.802 1156.91C560.447 1083.02 527.744 1012.42 514.588 949.492C501.433 886.568 507.831 831.357 536.618 788.173C565.404 744.988 613.905 717.841 677.046 705.776C740.19 693.71 817.937 696.736 905.132 713.864C1079.52 748.121 1291.6 838.766 1500.02 977.696C1708.44 1116.63 1873.7 1277.51 1972.41 1425.3C2021.76 1499.19 2054.47 1569.79 2067.62 1632.72C2080.78 1695.64 2074.38 1750.85 2045.59 1794.04Z" stroke="url(#paint66_linear_222_695)"/>
<path d="M2036.7 1807.13C2007.16 1849.8 1958.2 1876.1 1894.86 1887.06C1831.51 1898.02 1753.83 1893.64 1666.95 1874.99C1493.18 1837.7 1282.72 1743.36 1076.75 1600.82C870.79 1458.27 708.364 1294.53 612.249 1145.04C564.191 1070.3 532.725 999.138 520.67 935.992C508.615 872.848 515.975 817.757 545.511 775.081C575.046 732.406 624.014 706.11 687.356 695.148C750.701 684.186 828.383 688.568 915.266 707.216C1089.03 744.511 1299.49 838.843 1505.46 981.39C1711.42 1123.94 1873.85 1287.68 1969.96 1437.17C2018.02 1511.91 2049.49 1583.07 2061.54 1646.22C2073.6 1709.36 2066.24 1764.45 2036.7 1807.13Z" stroke="url(#paint67_linear_222_695)"/>
<path d="M2027.58 1820.06C1997.3 1862.21 1947.89 1887.65 1884.36 1897.51C1820.83 1907.36 1743.24 1901.62 1656.7 1881.46C1483.61 1841.14 1274.82 1743.15 1071.38 1597.03C867.936 1450.91 708.392 1284.36 614.9 1133.21C568.154 1057.64 537.934 985.946 526.983 922.6C516.032 859.255 524.353 804.301 554.629 762.147C584.905 719.994 634.323 694.556 697.848 684.702C761.374 674.847 838.968 680.584 925.512 700.745C1098.6 741.067 1307.38 839.058 1510.83 985.177C1714.27 1131.3 1873.82 1297.85 1967.31 1448.99C2014.05 1524.56 2044.27 1596.26 2055.23 1659.61C2066.18 1722.95 2057.86 1777.91 2027.58 1820.06Z" stroke="url(#paint68_linear_222_695)"/>
<path d="M2018.23 1832.83C1987.23 1874.45 1937.37 1899.02 1873.69 1907.77C1810 1916.51 1732.52 1909.42 1646.34 1887.75C1473.98 1844.42 1266.94 1742.8 1066.07 1593.15C865.21 1443.5 708.597 1274.19 617.758 1121.44C572.337 1045.06 543.374 972.848 533.53 909.32C523.686 845.794 532.965 790.994 563.971 749.375C594.979 707.756 644.834 683.184 708.52 674.44C772.209 665.696 849.691 672.786 935.869 694.455C1108.23 737.791 1315.27 839.411 1516.13 989.059C1717 1138.71 1873.61 1308.02 1964.45 1460.77C2009.87 1537.15 2038.83 1609.36 2048.68 1672.89C2058.52 1736.41 2049.24 1791.21 2018.23 1832.83Z" stroke="url(#paint69_linear_222_695)"/>
<path d="M2008.67 1845.44C1976.94 1886.51 1926.67 1910.21 1862.84 1917.84C1799.01 1925.47 1721.66 1917.03 1635.87 1893.86C1464.3 1847.52 1259.06 1742.31 1060.84 1589.18C862.617 1436.05 708.984 1264.03 620.823 1109.71C576.743 1032.56 549.044 959.848 540.31 896.157C531.577 832.47 541.81 777.839 573.539 736.768C605.268 695.696 655.544 671.999 719.373 664.368C783.205 656.736 860.551 665.178 946.339 688.347C1117.91 734.684 1323.15 839.903 1521.37 993.033C1719.59 1146.16 1873.23 1318.18 1961.39 1472.5C2005.47 1549.65 2033.17 1622.36 2041.9 1686.05C2050.63 1749.74 2040.4 1804.37 2008.67 1845.44Z" stroke="url(#paint70_linear_222_695)"/>
<path d="M1998.89 1857.88C1966.45 1898.39 1915.77 1921.21 1851.81 1927.72C1787.86 1934.24 1710.67 1924.45 1625.3 1899.79C1454.56 1850.46 1251.19 1741.68 1055.67 1585.11C860.153 1428.55 709.545 1253.87 624.091 1098.04C581.364 1020.13 554.939 946.947 547.318 883.114C539.697 819.284 550.882 764.84 583.323 724.329C615.763 683.817 666.446 661.001 730.399 654.485C794.354 647.969 871.541 657.759 956.911 682.422C1127.65 731.747 1331.02 840.531 1526.54 997.097C1722.06 1153.66 1872.67 1328.34 1958.12 1484.17C2000.85 1562.08 2027.27 1635.26 2034.89 1699.09C2042.51 1762.93 2031.33 1817.37 1998.89 1857.88Z" stroke="url(#paint71_linear_222_695)"/>
<path d="M1988.89 1870.15C1955.74 1910.09 1904.67 1932.01 1840.62 1937.41C1776.56 1942.81 1699.55 1931.68 1614.62 1905.53C1444.77 1853.23 1243.33 1740.91 1050.57 1580.96C857.819 1421 710.282 1243.73 627.561 1086.43C586.2 1007.78 561.056 934.151 554.55 870.195C548.044 806.241 560.178 752.001 593.321 712.062C626.464 672.123 677.536 650.195 741.593 644.796C805.652 639.397 882.657 650.532 967.583 676.681C1137.44 728.978 1338.88 841.295 1531.63 1001.25C1724.39 1161.2 1871.93 1338.48 1954.65 1495.78C1996.01 1574.43 2021.15 1648.06 2027.66 1712.01C2034.16 1775.97 2022.03 1830.21 1988.89 1870.15Z" stroke="url(#paint72_linear_222_695)"/>
<path d="M1978.68 1882.24C1944.84 1921.59 1893.39 1942.62 1829.25 1946.91C1765.11 1951.19 1688.31 1938.71 1603.85 1911.08C1434.94 1855.83 1235.49 1740.01 1045.55 1576.72C855.619 1413.42 711.199 1233.6 631.236 1074.88C591.254 995.524 567.398 921.466 562.009 857.406C556.621 793.348 569.7 739.328 603.534 699.974C637.369 660.619 688.817 639.585 752.958 635.305C817.102 631.025 893.9 643.503 978.357 671.13C1147.27 726.383 1346.72 842.199 1536.66 1005.49C1726.59 1168.79 1871.01 1348.61 1950.98 1507.33C1990.96 1586.69 2014.81 1660.74 2020.2 1724.8C2025.59 1788.86 2012.51 1842.88 1978.68 1882.24Z" stroke="url(#paint73_linear_222_695)"/>
<path d="M1968.25 1894.15C1933.74 1932.9 1881.93 1953.04 1817.72 1956.2C1753.52 1959.36 1676.95 1945.54 1592.98 1916.44C1425.06 1858.25 1227.66 1738.97 1040.61 1572.39C853.549 1405.8 712.289 1223.48 635.108 1063.4C596.517 983.354 573.958 908.891 569.688 844.747C565.419 780.605 579.438 726.821 613.954 688.063C648.471 649.305 700.278 629.173 764.484 626.012C828.693 622.852 905.261 636.669 989.224 665.765C1157.15 723.959 1354.55 843.237 1541.6 1009.82C1728.66 1176.41 1869.92 1358.72 1947.1 1518.81C1985.69 1598.85 2008.25 1673.32 2012.52 1737.46C2016.79 1801.6 2002.77 1855.39 1968.25 1894.15Z" stroke="url(#paint74_linear_222_695)"/>
<path d="M1957.63 1905.87C1922.44 1944.02 1870.29 1963.25 1806.04 1965.29C1741.78 1967.32 1665.47 1952.17 1582.03 1921.62C1415.14 1860.5 1219.85 1737.8 1035.73 1567.97C851.615 1398.15 713.558 1213.39 639.183 1051.98C601.995 971.278 580.738 896.433 577.588 832.224C574.439 768.017 589.395 714.486 624.582 676.337C659.77 638.187 711.92 618.961 776.172 616.922C840.426 614.883 916.742 630.034 1000.18 660.591C1167.07 721.706 1362.35 844.412 1546.47 1014.24C1730.59 1184.06 1868.65 1368.81 1943.03 1530.22C1980.21 1610.93 2001.47 1685.77 2004.62 1749.98C2007.77 1814.19 1992.81 1867.72 1957.63 1905.87Z" stroke="url(#paint75_linear_222_695)"/>
<path d="M1946.8 1917.41C1910.95 1954.94 1858.47 1973.25 1794.19 1974.17C1729.91 1975.09 1653.87 1958.61 1570.98 1926.6C1405.19 1862.58 1212.07 1736.48 1030.94 1563.47C849.813 1390.46 715.002 1203.32 643.455 1040.64C607.681 959.3 587.734 884.095 585.706 819.841C583.677 755.589 599.565 702.328 635.413 664.798C671.261 627.268 723.739 608.956 788.017 608.038C852.296 607.121 928.336 623.601 1011.23 655.61C1177.02 719.629 1370.14 845.724 1551.27 1018.73C1732.4 1191.75 1867.21 1378.88 1938.75 1541.57C1974.53 1622.91 1994.48 1698.11 1996.5 1762.37C1998.53 1826.62 1982.64 1879.88 1946.8 1917.41Z" stroke="url(#paint76_linear_222_695)"/>
<path d="M1935.77 1928.76C1899.27 1965.66 1846.48 1983.05 1782.2 1982.84C1717.91 1982.64 1642.17 1964.83 1559.84 1931.38C1395.2 1864.48 1204.31 1735.04 1026.23 1558.89C848.147 1382.74 716.622 1193.28 647.925 1029.38C613.576 947.422 594.945 871.881 594.038 807.601C593.131 743.323 609.946 690.347 646.443 653.449C682.941 616.55 735.73 599.156 800.014 599.361C864.3 599.565 940.041 617.37 1022.37 650.821C1187.01 717.723 1377.9 847.17 1555.98 1023.32C1734.06 1199.46 1865.59 1388.92 1934.28 1552.83C1968.63 1634.78 1987.26 1710.32 1988.17 1774.6C1989.08 1838.88 1972.26 1891.86 1935.77 1928.76Z" stroke="url(#paint77_linear_222_695)"/>
<path d="M1924.54 1939.91C1887.4 1976.17 1834.32 1992.64 1770.05 1991.31C1705.78 1989.98 1630.36 1970.86 1548.63 1935.98C1385.17 1866.21 1196.57 1733.45 1021.59 1554.23C846.615 1375 718.416 1183.27 652.591 1018.19C619.677 935.651 602.367 859.796 602.582 795.51C602.797 731.226 620.534 678.552 657.67 642.296C694.806 606.04 747.891 589.57 812.161 590.896C876.434 592.223 951.853 611.347 1033.58 646.23C1197.04 715.995 1385.63 848.753 1560.61 1027.98C1735.59 1207.21 1863.79 1398.93 1929.62 1564.01C1962.53 1646.56 1979.84 1722.41 1979.63 1786.7C1979.41 1850.98 1961.67 1903.66 1924.54 1939.91Z" stroke="url(#paint78_linear_222_695)"/>
<path d="M1913.12 1950.87C1875.36 1986.47 1821.99 2002.01 1757.75 1999.56C1693.51 1997.11 1618.44 1976.68 1537.33 1940.37C1375.12 1867.77 1188.87 1731.74 1017.04 1549.48C845.218 1367.23 720.385 1173.29 657.451 1007.09C625.983 923.987 609.999 847.841 611.336 783.569C612.673 719.299 631.327 666.942 669.09 631.339C706.853 595.737 760.217 580.196 824.454 582.644C888.694 585.092 963.767 605.529 1044.87 641.833C1207.09 714.44 1393.34 850.47 1565.17 1032.72C1736.99 1214.98 1861.82 1408.91 1924.76 1575.12C1956.23 1658.22 1972.21 1734.37 1970.87 1798.64C1969.54 1862.91 1950.88 1915.27 1913.12 1950.87Z" stroke="url(#paint79_linear_222_695)"/>
<path d="M1901.51 1961.62C1863.13 1996.56 1809.5 2011.17 1745.32 2007.6C1681.13 2004.03 1606.43 1982.29 1525.96 1944.57C1365.04 1869.15 1181.19 1729.89 1012.58 1544.66C843.957 1359.44 722.528 1163.35 662.503 996.075C632.491 912.436 617.838 836.023 620.297 771.783C622.755 707.546 642.32 655.523 680.698 620.585C719.077 585.647 772.704 571.04 836.889 574.609C901.077 578.178 975.782 599.922 1056.24 637.636C1217.16 713.063 1401.01 852.322 1569.63 1037.55C1738.25 1222.77 1859.68 1418.86 1919.7 1586.13C1949.72 1669.77 1964.37 1746.19 1961.91 1810.43C1959.45 1874.66 1939.89 1926.69 1901.51 1961.62Z" stroke="url(#paint80_linear_222_695)"/>
<path d="M1889.71 1972.17C1850.73 2006.44 1796.86 2020.11 1732.75 2015.42C1668.63 2010.73 1594.32 1987.68 1514.53 1948.57C1354.95 1870.35 1173.55 1727.9 1008.19 1539.76C842.833 1351.62 724.845 1153.45 667.749 985.149C639.201 900.998 625.884 824.341 629.463 760.154C633.042 695.97 653.512 644.296 692.494 610.033C731.477 575.77 785.351 562.102 849.464 566.79C913.579 571.478 987.893 594.523 1067.68 633.635C1227.26 711.859 1408.66 854.306 1574.02 1042.45C1739.38 1230.58 1857.36 1428.76 1914.46 1597.06C1943.01 1681.21 1956.33 1757.87 1952.75 1822.05C1949.17 1886.24 1928.7 1937.91 1889.71 1972.17Z" stroke="url(#paint81_linear_222_695)"/>
<path d="M1877.74 1982.52C1838.16 2016.1 1784.06 2028.82 1720.04 2023.01C1656.01 2017.21 1582.11 1992.87 1503.02 1952.37C1344.83 1871.37 1165.95 1725.78 1003.9 1534.79C841.845 1343.79 727.334 1143.59 673.184 974.316C646.108 889.681 634.132 812.803 638.831 748.688C643.529 684.576 664.897 633.267 704.472 599.69C744.047 566.113 798.151 553.386 862.172 559.193C926.196 565 1000.1 589.338 1079.19 629.837C1237.38 710.834 1416.26 856.425 1578.31 1047.42C1740.36 1238.42 1854.88 1438.62 1909.03 1607.89C1936.1 1692.53 1948.08 1769.41 1943.38 1833.52C1938.68 1897.63 1917.31 1948.94 1877.74 1982.52Z" stroke="url(#paint82_linear_222_695)"/>
<path d="M1865.58 1992.65C1825.43 2025.53 1771.11 2037.31 1707.2 2030.39C1643.29 2023.47 1569.82 1997.84 1491.44 1955.97C1334.69 1872.22 1158.38 1723.53 999.687 1529.74C840.993 1335.94 729.993 1133.77 678.806 963.581C653.211 878.485 642.578 801.41 648.395 737.387C654.212 673.367 676.473 622.439 716.627 589.558C756.782 556.676 811.1 544.896 875.01 551.819C938.923 558.742 1012.39 584.366 1090.76 626.239C1247.52 709.985 1423.83 858.675 1582.52 1052.47C1741.21 1246.27 1852.21 1448.44 1903.4 1618.63C1929 1703.72 1939.63 1780.8 1933.81 1844.82C1928 1908.84 1905.73 1959.77 1865.58 1992.65Z" stroke="url(#paint83_linear_222_695)"/>
<path d="M1853.25 2002.57C1812.53 2034.75 1758.01 2045.58 1694.23 2037.54C1630.45 2029.5 1557.44 2002.6 1479.81 1959.36C1324.54 1872.89 1150.85 1721.15 995.568 1524.61C840.281 1328.08 732.826 1124 684.616 952.944C660.511 867.415 651.225 790.166 658.158 726.254C665.091 662.345 688.237 611.814 728.959 579.638C769.682 547.462 824.198 536.632 887.977 544.669C951.759 552.706 1024.77 579.609 1102.4 622.844C1257.67 709.312 1431.36 861.057 1586.64 1057.59C1741.93 1254.13 1849.38 1458.21 1897.59 1629.26C1921.7 1714.79 1930.99 1792.04 1924.05 1855.95C1917.12 1919.86 1893.97 1970.39 1853.25 2002.57Z" stroke="url(#paint84_linear_222_695)"/>
<path d="M1840.75 2012.27C1799.47 2043.73 1744.77 2053.61 1681.14 2044.46C1617.51 2035.31 1544.99 2007.14 1468.12 1962.55C1314.38 1873.39 1143.37 1718.64 991.536 1519.42C839.703 1320.2 735.826 1114.28 690.609 942.411C668 856.474 660.064 779.075 668.112 715.294C676.159 651.516 700.183 601.396 741.461 569.936C782.739 538.476 837.435 528.598 901.065 537.747C964.697 546.897 1037.22 575.069 1114.09 619.652C1267.82 708.817 1438.84 863.57 1590.67 1062.79C1742.5 1262 1846.38 1467.92 1891.6 1639.8C1914.21 1725.73 1922.14 1803.13 1914.1 1866.91C1906.05 1930.69 1882.02 1980.81 1840.75 2012.27Z" stroke="url(#paint85_linear_222_695)"/>
<path d="M1828.08 2021.75C1786.26 2052.49 1731.4 2061.41 1667.94 2051.15C1604.47 2040.89 1532.45 2011.46 1456.37 1965.54C1304.22 1873.71 1135.93 1715.99 987.597 1514.16C839.264 1312.32 738.997 1104.62 696.786 931.984C675.681 845.665 669.096 768.139 678.256 704.509C687.415 640.881 712.311 591.188 754.131 560.453C795.951 529.718 850.812 520.797 914.272 531.055C977.735 541.313 1049.76 570.747 1125.84 616.665C1277.99 708.5 1446.28 866.214 1594.61 1068.05C1742.94 1269.88 1843.21 1477.59 1885.42 1650.22C1906.53 1736.54 1913.11 1814.07 1903.95 1877.7C1894.79 1941.33 1869.9 1991.02 1828.08 2021.75Z" stroke="url(#paint86_linear_222_695)"/>
<path d="M1815.24 2031.02C1772.89 2061.02 1717.89 2068.98 1654.61 2057.61C1591.34 2046.25 1519.84 2015.56 1444.58 1968.32C1294.05 1873.85 1128.54 1713.22 983.751 1508.83C838.963 1304.44 742.336 1095.01 703.145 921.668C683.549 834.994 678.318 757.365 688.587 693.904C698.856 630.446 724.615 581.194 766.965 551.194C809.315 521.194 864.323 513.231 927.595 524.595C990.869 535.96 1062.37 566.646 1137.63 613.885C1288.16 708.361 1453.67 868.988 1598.46 1073.38C1743.25 1277.77 1839.87 1487.2 1879.06 1660.54C1898.66 1747.22 1903.89 1824.85 1893.62 1888.31C1883.35 1951.76 1857.59 2001.02 1815.24 2031.02Z" stroke="url(#paint87_linear_222_695)"/>
<path d="M1802.25 2040.05C1759.38 2069.31 1704.25 2076.31 1641.18 2063.84C1578.12 2051.37 1507.16 2019.44 1432.73 1970.9C1283.88 1873.81 1121.2 1710.32 979.998 1503.43C838.799 1296.54 745.842 1085.46 709.682 911.462C691.602 824.459 687.727 746.75 699.102 683.478C710.476 620.209 737.09 571.415 779.958 542.158C822.826 512.901 877.964 505.9 941.028 518.367C1004.09 530.834 1075.05 562.764 1149.47 611.308C1298.33 708.397 1461.01 871.888 1602.21 1078.78C1743.41 1285.67 1836.37 1496.74 1872.53 1670.75C1890.61 1757.75 1894.48 1835.46 1883.11 1898.73C1871.73 1962 1845.12 2010.79 1802.25 2040.05Z" stroke="url(#paint88_linear_222_695)"/>
<path d="M1789.1 2048.86C1745.73 2077.36 1690.48 2083.4 1627.64 2069.83C1564.8 2056.27 1494.42 2023.1 1420.85 1973.27C1273.71 1873.59 1113.91 1707.29 976.341 1497.97C838.774 1288.65 749.515 1075.98 716.397 901.372C699.838 814.067 697.32 736.303 709.797 673.239C722.274 610.177 749.736 561.855 793.107 533.351C836.479 504.847 891.731 498.809 954.568 512.374C1017.41 525.94 1087.79 559.103 1161.36 608.94C1308.5 708.612 1468.3 874.917 1605.87 1084.24C1743.44 1293.56 1832.7 1506.23 1865.81 1680.83C1882.37 1768.14 1884.89 1845.9 1872.41 1908.97C1859.94 1972.03 1832.47 2020.35 1789.1 2048.86Z" stroke="url(#paint89_linear_222_695)"/>
<path d="M1775.8 2057.43C1731.94 2085.18 1676.59 2090.25 1614 2075.59C1551.41 2060.93 1481.61 2026.54 1408.92 1975.43C1263.55 1873.2 1106.67 1704.13 972.777 1492.44C838.884 1280.75 753.35 1066.56 723.285 891.402C708.252 803.822 707.091 726.025 720.667 663.189C734.243 600.355 762.544 552.519 806.406 524.776C850.269 497.034 905.618 491.961 968.208 506.621C1030.8 521.282 1100.6 555.668 1173.28 606.781C1318.66 709.005 1475.54 878.074 1609.43 1089.77C1743.32 1301.46 1828.86 1515.65 1858.92 1690.81C1873.96 1778.39 1875.12 1856.18 1861.54 1919.02C1847.97 1981.86 1819.66 2029.69 1775.8 2057.43Z" stroke="url(#paint90_linear_222_695)"/>
<path d="M1762.35 2065.78C1718.01 2092.75 1662.59 2096.85 1600.26 2081.1C1537.93 2065.35 1468.75 2029.75 1396.96 1977.38C1253.39 1872.63 1099.49 1700.85 969.313 1486.86C839.135 1272.86 757.352 1057.21 730.348 881.552C716.846 793.723 717.043 715.918 731.714 653.328C746.384 590.74 775.516 543.406 819.856 516.433C864.196 489.46 919.625 485.354 981.95 501.104C1044.28 516.855 1113.46 552.454 1185.25 604.827C1328.82 709.574 1482.72 881.355 1612.9 1095.35C1743.08 1309.35 1824.86 1525 1851.86 1700.65C1865.36 1788.48 1865.17 1866.29 1850.5 1928.88C1835.83 1991.47 1806.69 2038.8 1762.35 2065.78Z" stroke="url(#paint91_linear_222_695)"/>
<path d="M1748.76 2073.88C1703.96 2100.08 1648.47 2103.21 1586.43 2086.38C1524.38 2069.54 1455.83 2032.74 1384.97 1979.12C1243.25 1871.89 1092.37 1697.45 965.944 1481.21C839.521 1264.98 761.514 1047.93 737.58 871.829C725.613 783.777 727.168 705.988 742.929 643.663C758.689 581.341 788.642 534.522 833.446 508.327C878.25 482.132 933.743 478.994 995.783 495.83C1057.83 512.666 1126.38 549.467 1197.24 603.085C1338.96 710.321 1489.84 884.762 1616.26 1101C1742.69 1317.23 1820.69 1534.28 1844.63 1710.38C1856.6 1798.43 1855.04 1876.22 1839.28 1938.55C1823.52 2000.87 1793.57 2047.69 1748.76 2073.88Z" stroke="url(#paint92_linear_222_695)"/>
<path d="M1735.03 2081.75C1689.78 2107.16 1634.24 2109.33 1572.5 2091.41C1510.76 2073.5 1442.86 2035.5 1372.95 1980.66C1233.12 1870.96 1085.31 1693.92 962.677 1475.51C840.047 1257.1 765.84 1038.72 744.983 862.232C734.554 773.985 737.467 696.234 754.313 634.194C771.158 572.157 801.924 525.868 847.178 500.459C892.433 475.049 947.971 472.881 1009.71 490.796C1071.45 508.712 1139.35 546.704 1209.26 601.551C1349.09 711.244 1496.9 888.292 1619.53 1106.7C1742.16 1325.11 1816.37 1543.48 1837.23 1719.98C1847.66 1808.22 1844.74 1885.97 1827.9 1948.01C1811.05 2010.05 1780.29 2056.34 1735.03 2081.75Z" stroke="url(#paint93_linear_222_695)"/>
<path d="M1721.16 2089.38C1675.47 2113.99 1619.91 2115.19 1558.49 2096.2C1497.07 2077.21 1429.85 2038.04 1360.9 1981.98C1223.01 1869.86 1078.31 1690.26 959.507 1469.75C840.707 1249.23 770.323 1029.59 752.549 852.765C743.662 764.349 747.931 686.661 765.858 624.925C783.783 563.191 815.352 517.446 861.043 492.83C906.734 468.215 962.302 467.016 1023.72 486.006C1085.13 504.997 1152.36 544.168 1221.31 600.227C1359.2 712.344 1503.9 891.944 1622.7 1112.46C1741.5 1332.97 1811.88 1552.61 1829.66 1729.44C1838.54 1817.86 1834.28 1895.54 1816.35 1957.28C1798.42 2019.02 1766.85 2064.76 1721.16 2089.38Z" stroke="url(#paint94_linear_222_695)"/>
<path d="M1707.17 2096.76C1661.05 2120.57 1605.47 2120.8 1544.4 2100.74C1483.32 2080.68 1416.79 2040.34 1348.83 1983.09C1212.92 1868.58 1071.37 1686.49 956.44 1463.93C841.507 1241.38 774.966 1020.55 760.281 843.433C752.939 754.875 758.563 677.273 777.564 615.859C796.564 554.447 828.927 509.261 875.04 485.446C921.154 461.632 976.735 461.403 1037.81 481.462C1098.89 501.522 1165.42 541.86 1233.38 599.114C1369.29 713.62 1510.83 895.718 1625.77 1118.27C1740.7 1340.83 1807.24 1561.66 1821.93 1738.77C1829.27 1827.33 1823.64 1904.93 1804.64 1966.35C1785.64 2027.76 1753.28 2072.95 1707.17 2096.76Z" stroke="url(#paint95_linear_222_695)"/>
<path d="M1693.04 2103.9C1646.52 2126.91 1590.95 2126.16 1530.23 2105.04C1469.51 2083.92 1403.7 2042.43 1336.75 1983.99C1202.85 1867.13 1064.51 1682.59 953.475 1458.07C842.444 1233.54 779.767 1011.58 768.176 834.238C762.38 745.566 769.357 668.075 789.427 607.001C809.497 545.931 842.643 501.315 889.165 478.309C935.687 455.304 991.263 456.044 1051.98 477.166C1112.7 498.289 1178.51 539.783 1245.46 598.214C1379.36 715.074 1517.7 899.615 1628.73 1124.14C1739.76 1348.67 1802.44 1570.63 1814.03 1747.97C1819.83 1836.64 1812.85 1914.13 1792.78 1975.21C1772.71 2036.28 1739.56 2080.89 1693.04 2103.9Z" stroke="url(#paint96_linear_222_695)"/>
<path d="M1678.8 2110.79C1631.88 2132.98 1576.33 2131.27 1515.99 2109.09C1455.65 2086.91 1390.57 2044.28 1324.65 1984.69C1192.81 1865.51 1057.71 1678.58 950.614 1452.15C843.518 1225.72 784.725 1002.7 776.23 825.181C771.982 736.422 780.311 659.063 801.444 598.35C822.576 537.639 856.496 493.609 903.413 471.418C950.329 449.228 1005.88 450.938 1066.22 473.117C1126.56 495.296 1191.64 537.932 1257.56 597.522C1389.4 716.702 1524.5 903.629 1631.6 1130.06C1738.69 1356.49 1797.49 1579.51 1805.98 1757.03C1810.23 1845.79 1801.9 1923.14 1780.77 1983.86C1759.63 2044.57 1725.71 2088.6 1678.8 2110.79Z" stroke="url(#paint97_linear_222_695)"/>
<path d="M1664.43 2117.43C1617.14 2138.8 1561.62 2136.12 1501.68 2112.89C1441.74 2089.66 1377.41 2045.9 1312.54 1985.17C1182.8 1863.7 1050.98 1674.45 947.854 1446.18C844.726 1217.92 789.834 993.905 784.439 816.267C781.741 727.447 791.419 650.246 813.608 589.91C835.796 529.577 870.479 486.145 917.776 464.777C965.073 443.409 1020.59 446.089 1080.53 469.317C1140.47 492.546 1204.8 536.311 1269.67 597.043C1399.41 718.505 1531.23 907.762 1634.35 1136.03C1737.48 1364.29 1792.37 1588.3 1797.77 1765.94C1800.47 1854.76 1790.79 1931.96 1768.6 1992.3C1746.41 2052.63 1711.73 2096.06 1664.43 2117.43Z" stroke="url(#paint98_linear_222_695)"/>
<path d="M1649.95 2123.82C1602.29 2144.36 1546.83 2140.71 1487.3 2116.44C1427.78 2092.17 1364.22 2047.29 1300.42 1985.43C1172.83 1861.73 1044.33 1670.2 945.2 1440.17C846.072 1210.14 795.098 985.202 792.803 807.496C791.656 718.642 802.68 641.622 825.918 581.683C849.156 521.746 884.592 478.927 932.254 458.387C979.917 437.848 1035.38 441.496 1094.9 465.767C1154.43 490.038 1217.99 534.919 1281.79 596.774C1409.38 720.482 1537.88 912.011 1637.01 1142.04C1736.14 1372.07 1787.11 1597.01 1789.41 1774.71C1790.55 1863.57 1779.53 1940.59 1756.29 2000.53C1733.05 2060.46 1697.62 2103.28 1649.95 2123.82Z" stroke="url(#paint99_linear_222_695)"/>
<defs>
<linearGradient id="paint0_linear_222_695" x1="2057.85" y1="806.139" x2="524.352" y2="1776.07" gradientUnits="userSpaceOnUse">
<stop stop-color="#22013C"/>
<stop offset="1" stop-color="#33013A"/>
</linearGradient>
<linearGradient id="paint1_linear_222_695" x1="2066.2" y1="819.594" x2="516.006" y2="1762.61" gradientUnits="userSpaceOnUse">
<stop stop-color="#22013C"/>
<stop offset="1" stop-color="#33013A"/>
</linearGradient>
<linearGradient id="paint2_linear_222_695" x1="2074.31" y1="833.193" x2="507.896" y2="1749.01" gradientUnits="userSpaceOnUse">
<stop stop-color="#22013C"/>
<stop offset="1" stop-color="#33013A"/>
</linearGradient>
<linearGradient id="paint3_linear_222_695" x1="2082.19" y1="846.932" x2="500.022" y2="1735.28" gradientUnits="userSpaceOnUse">
<stop stop-color="#22013C"/>
<stop offset="1" stop-color="#33013A"/>
</linearGradient>
<linearGradient id="paint4_linear_222_695" x1="2089.82" y1="860.805" x2="492.392" y2="1721.4" gradientUnits="userSpaceOnUse">
<stop stop-color="#22013C"/>
<stop offset="1" stop-color="#33013A"/>
</linearGradient>
<linearGradient id="paint5_linear_222_695" x1="2097.21" y1="874.81" x2="485.003" y2="1707.4" gradientUnits="userSpaceOnUse">
<stop stop-color="#22013C"/>
<stop offset="1" stop-color="#33013A"/>
</linearGradient>
<linearGradient id="paint6_linear_222_695" x1="2104.35" y1="888.943" x2="477.861" y2="1693.26" gradientUnits="userSpaceOnUse">
<stop stop-color="#22013C"/>
<stop offset="1" stop-color="#33013A"/>
</linearGradient>
<linearGradient id="paint7_linear_222_695" x1="2111.24" y1="903.198" x2="470.966" y2="1679.01" gradientUnits="userSpaceOnUse">
<stop stop-color="#22013C"/>
<stop offset="1" stop-color="#33013A"/>
</linearGradient>
<linearGradient id="paint8_linear_222_695" x1="2117.89" y1="917.57" x2="464.322" y2="1664.64" gradientUnits="userSpaceOnUse">
<stop stop-color="#22013C"/>
<stop offset="1" stop-color="#33013A"/>
</linearGradient>
<linearGradient id="paint9_linear_222_695" x1="2124.28" y1="932.056" x2="457.928" y2="1650.15" gradientUnits="userSpaceOnUse">
<stop stop-color="#22013C"/>
<stop offset="1" stop-color="#33013A"/>
</linearGradient>
<linearGradient id="paint10_linear_222_695" x1="2130.42" y1="946.651" x2="451.788" y2="1635.56" gradientUnits="userSpaceOnUse">
<stop stop-color="#22013C"/>
<stop offset="1" stop-color="#33013A"/>
</linearGradient>
<linearGradient id="paint11_linear_222_695" x1="2136.31" y1="961.353" x2="445.906" y2="1620.86" gradientUnits="userSpaceOnUse">
<stop stop-color="#22013C"/>
<stop offset="1" stop-color="#33013A"/>
</linearGradient>
<linearGradient id="paint12_linear_222_695" x1="2141.93" y1="976.154" x2="440.28" y2="1606.05" gradientUnits="userSpaceOnUse">
<stop stop-color="#22013C"/>
<stop offset="1" stop-color="#33013A"/>
</linearGradient>
<linearGradient id="paint13_linear_222_695" x1="2147.3" y1="991.051" x2="434.911" y2="1591.16" gradientUnits="userSpaceOnUse">
<stop stop-color="#22013C"/>
<stop offset="1" stop-color="#33013A"/>
</linearGradient>
<linearGradient id="paint14_linear_222_695" x1="2152.4" y1="1006.04" x2="429.806" y2="1576.17" gradientUnits="userSpaceOnUse">
<stop stop-color="#22013C"/>
<stop offset="1" stop-color="#33013A"/>
</linearGradient>
<linearGradient id="paint15_linear_222_695" x1="2157.25" y1="1021.11" x2="424.961" y2="1561.09" gradientUnits="userSpaceOnUse">
<stop stop-color="#22013C"/>
<stop offset="1" stop-color="#33013A"/>
</linearGradient>
<linearGradient id="paint16_linear_222_695" x1="2161.83" y1="1036.27" x2="420.382" y2="1545.94" gradientUnits="userSpaceOnUse">
<stop stop-color="#22013C"/>
<stop offset="1" stop-color="#33013A"/>
</linearGradient>
<linearGradient id="paint17_linear_222_695" x1="2166.14" y1="1051.51" x2="416.067" y2="1530.7" gradientUnits="userSpaceOnUse">
<stop stop-color="#22013C"/>
<stop offset="1" stop-color="#33013A"/>
</linearGradient>
<linearGradient id="paint18_linear_222_695" x1="2170.19" y1="1066.81" x2="412.019" y2="1515.39" gradientUnits="userSpaceOnUse">
<stop stop-color="#22013C"/>
<stop offset="1" stop-color="#33013A"/>
</linearGradient>
<linearGradient id="paint19_linear_222_695" x1="2173.97" y1="1082.19" x2="408.238" y2="1500.02" gradientUnits="userSpaceOnUse">
<stop stop-color="#22013C"/>
<stop offset="1" stop-color="#33013A"/>
</linearGradient>
<linearGradient id="paint20_linear_222_695" x1="2177.48" y1="1097.63" x2="404.726" y2="1484.58" gradientUnits="userSpaceOnUse">
<stop stop-color="#22013C"/>
<stop offset="1" stop-color="#33013A"/>
</linearGradient>
<linearGradient id="paint21_linear_222_695" x1="2180.72" y1="1113.13" x2="401.485" y2="1469.08" gradientUnits="userSpaceOnUse">
<stop stop-color="#22013C"/>
<stop offset="1" stop-color="#33013A"/>
</linearGradient>
<linearGradient id="paint22_linear_222_695" x1="2183.69" y1="1128.68" x2="398.514" y2="1453.53" gradientUnits="userSpaceOnUse">
<stop stop-color="#22013C"/>
<stop offset="1" stop-color="#33013A"/>
</linearGradient>
<linearGradient id="paint23_linear_222_695" x1="2186.39" y1="1144.29" x2="395.816" y2="1437.92" gradientUnits="userSpaceOnUse">
<stop stop-color="#22013C"/>
<stop offset="1" stop-color="#33013A"/>
</linearGradient>
<linearGradient id="paint24_linear_222_695" x1="2188.82" y1="1159.93" x2="393.389" y2="1422.28" gradientUnits="userSpaceOnUse">
<stop stop-color="#22013C"/>
<stop offset="1" stop-color="#33013A"/>
</linearGradient>
<linearGradient id="paint25_linear_222_695" x1="2190.97" y1="1175.62" x2="391.236" y2="1406.59" gradientUnits="userSpaceOnUse">
<stop stop-color="#22013C"/>
<stop offset="1" stop-color="#33013A"/>
</linearGradient>
<linearGradient id="paint26_linear_222_695" x1="2192.85" y1="1191.34" x2="389.359" y2="1390.87" gradientUnits="userSpaceOnUse">
<stop stop-color="#22013C"/>
<stop offset="1" stop-color="#33013A"/>
</linearGradient>
<linearGradient id="paint27_linear_222_695" x1="2194.45" y1="1207.1" x2="387.755" y2="1375.11" gradientUnits="userSpaceOnUse">
<stop stop-color="#22013C"/>
<stop offset="1" stop-color="#33013A"/>
</linearGradient>
<linearGradient id="paint28_linear_222_695" x1="2195.78" y1="1222.87" x2="386.426" y2="1359.34" gradientUnits="userSpaceOnUse">
<stop stop-color="#22013C"/>
<stop offset="1" stop-color="#33013A"/>
</linearGradient>
<linearGradient id="paint29_linear_222_695" x1="2196.84" y1="1238.67" x2="385.373" y2="1343.53" gradientUnits="userSpaceOnUse">
<stop stop-color="#22013C"/>
<stop offset="1" stop-color="#33013A"/>
</linearGradient>
<linearGradient id="paint30_linear_222_695" x1="2197.61" y1="1254.49" x2="384.595" y2="1327.72" gradientUnits="userSpaceOnUse">
<stop stop-color="#22013C"/>
<stop offset="1" stop-color="#33013A"/>
</linearGradient>
<linearGradient id="paint31_linear_222_695" x1="2198.12" y1="1270.31" x2="384.096" y2="1311.89" gradientUnits="userSpaceOnUse">
<stop stop-color="#22013C"/>
<stop offset="1" stop-color="#33013A"/>
</linearGradient>
<linearGradient id="paint32_linear_222_695" x1="2198.34" y1="1286.15" x2="383.87" y2="1296.06" gradientUnits="userSpaceOnUse">
<stop stop-color="#22013C"/>
<stop offset="1" stop-color="#33013A"/>
</linearGradient>
<linearGradient id="paint33_linear_222_695" x1="2198.29" y1="1301.98" x2="383.922" y2="1280.23" gradientUnits="userSpaceOnUse">
<stop stop-color="#22013C"/>
<stop offset="1" stop-color="#33013A"/>
</linearGradient>
<linearGradient id="paint34_linear_222_695" x1="2197.96" y1="1317.81" x2="384.251" y2="1264.4" gradientUnits="userSpaceOnUse">
<stop stop-color="#22013C"/>
<stop offset="1" stop-color="#33013A"/>
</linearGradient>
<linearGradient id="paint35_linear_222_695" x1="2197.35" y1="1333.63" x2="384.854" y2="1248.57" gradientUnits="userSpaceOnUse">
<stop stop-color="#22013C"/>
<stop offset="1" stop-color="#33013A"/>
</linearGradient>
<linearGradient id="paint36_linear_222_695" x1="2196.47" y1="1349.44" x2="385.734" y2="1232.76" gradientUnits="userSpaceOnUse">
<stop stop-color="#22013C"/>
<stop offset="1" stop-color="#33013A"/>
</linearGradient>
<linearGradient id="paint37_linear_222_695" x1="2195.32" y1="1365.24" x2="386.891" y2="1216.97" gradientUnits="userSpaceOnUse">
<stop stop-color="#22013C"/>
<stop offset="1" stop-color="#33013A"/>
</linearGradient>
<linearGradient id="paint38_linear_222_695" x1="2193.89" y1="1381.01" x2="388.323" y2="1201.2" gradientUnits="userSpaceOnUse">
<stop stop-color="#22013C"/>
<stop offset="1" stop-color="#33013A"/>
</linearGradient>
<linearGradient id="paint39_linear_222_695" x1="2192.18" y1="1396.75" x2="390.028" y2="1185.46" gradientUnits="userSpaceOnUse">
<stop stop-color="#22013C"/>
<stop offset="1" stop-color="#33013A"/>
</linearGradient>
<linearGradient id="paint40_linear_222_695" x1="2190.2" y1="1412.46" x2="392.01" y2="1169.75" gradientUnits="userSpaceOnUse">
<stop stop-color="#22013C"/>
<stop offset="1" stop-color="#33013A"/>
</linearGradient>
<linearGradient id="paint41_linear_222_695" x1="2187.94" y1="1428.13" x2="394.264" y2="1154.08" gradientUnits="userSpaceOnUse">
<stop stop-color="#22013C"/>
<stop offset="1" stop-color="#33013A"/>
</linearGradient>
<linearGradient id="paint42_linear_222_695" x1="2185.42" y1="1443.76" x2="396.793" y2="1138.45" gradientUnits="userSpaceOnUse">
<stop stop-color="#22013C"/>
<stop offset="1" stop-color="#33013A"/>
</linearGradient>
<linearGradient id="paint43_linear_222_695" x1="2182.62" y1="1459.35" x2="399.593" y2="1122.86" gradientUnits="userSpaceOnUse">
<stop stop-color="#22013C"/>
<stop offset="1" stop-color="#33013A"/>
</linearGradient>
<linearGradient id="paint44_linear_222_695" x1="2179.55" y1="1474.88" x2="402.666" y2="1107.33" gradientUnits="userSpaceOnUse">
<stop stop-color="#22013C"/>
<stop offset="1" stop-color="#33013A"/>
</linearGradient>
<linearGradient id="paint45_linear_222_695" x1="2176.2" y1="1490.36" x2="406.007" y2="1091.85" gradientUnits="userSpaceOnUse">
<stop stop-color="#22013C"/>
<stop offset="1" stop-color="#33013A"/>
</linearGradient>
<linearGradient id="paint46_linear_222_695" x1="2172.59" y1="1505.77" x2="409.619" y2="1076.43" gradientUnits="userSpaceOnUse">
<stop stop-color="#22013C"/>
<stop offset="1" stop-color="#33013A"/>
</linearGradient>
<linearGradient id="paint47_linear_222_695" x1="2168.71" y1="1521.13" x2="413.501" y2="1061.08" gradientUnits="userSpaceOnUse">
<stop stop-color="#22013C"/>
<stop offset="1" stop-color="#33013A"/>
</linearGradient>
<linearGradient id="paint48_linear_222_695" x1="2164.56" y1="1536.41" x2="417.65" y2="1045.8" gradientUnits="userSpaceOnUse">
<stop stop-color="#22013C"/>
<stop offset="1" stop-color="#33013A"/>
</linearGradient>
<linearGradient id="paint49_linear_222_695" x1="2160.15" y1="1551.61" x2="422.063" y2="1030.59" gradientUnits="userSpaceOnUse">
<stop stop-color="#22013C"/>
<stop offset="1" stop-color="#33013A"/>
</linearGradient>
<linearGradient id="paint50_linear_222_695" x1="2155.47" y1="1566.74" x2="426.741" y2="1015.47" gradientUnits="userSpaceOnUse">
<stop stop-color="#22013C"/>
<stop offset="1" stop-color="#33013A"/>
</linearGradient>
<linearGradient id="paint51_linear_222_695" x1="2150.53" y1="1581.78" x2="431.684" y2="1000.42" gradientUnits="userSpaceOnUse">
<stop stop-color="#22013C"/>
<stop offset="1" stop-color="#33013A"/>
</linearGradient>
<linearGradient id="paint52_linear_222_695" x1="2145.32" y1="1596.74" x2="436.887" y2="985.47" gradientUnits="userSpaceOnUse">
<stop stop-color="#22013C"/>
<stop offset="1" stop-color="#33013A"/>
</linearGradient>
<linearGradient id="paint53_linear_222_695" x1="2139.86" y1="1611.6" x2="442.352" y2="970.608" gradientUnits="userSpaceOnUse">
<stop stop-color="#22013C"/>
<stop offset="1" stop-color="#33013A"/>
</linearGradient>
<linearGradient id="paint54_linear_222_695" x1="2134.14" y1="1626.36" x2="448.076" y2="955.844" gradientUnits="userSpaceOnUse">
<stop stop-color="#22013C"/>
<stop offset="1" stop-color="#33013A"/>
</linearGradient>
<linearGradient id="paint55_linear_222_695" x1="2128.16" y1="1641.03" x2="454.055" y2="941.182" gradientUnits="userSpaceOnUse">
<stop stop-color="#22013C"/>
<stop offset="1" stop-color="#33013A"/>
</linearGradient>
<linearGradient id="paint56_linear_222_695" x1="2121.92" y1="1655.58" x2="460.289" y2="926.627" gradientUnits="userSpaceOnUse">
<stop stop-color="#22013C"/>
<stop offset="1" stop-color="#33013A"/>
</linearGradient>
<linearGradient id="paint57_linear_222_695" x1="2115.43" y1="1670.03" x2="466.775" y2="912.184" gradientUnits="userSpaceOnUse">
<stop stop-color="#22013C"/>
<stop offset="1" stop-color="#33013A"/>
</linearGradient>
<linearGradient id="paint58_linear_222_695" x1="2108.69" y1="1684.35" x2="473.515" y2="897.854" gradientUnits="userSpaceOnUse">
<stop stop-color="#22013C"/>
<stop offset="1" stop-color="#33013A"/>
</linearGradient>
<linearGradient id="paint59_linear_222_695" x1="2101.71" y1="1698.56" x2="480.503" y2="883.646" gradientUnits="userSpaceOnUse">
<stop stop-color="#22013C"/>
<stop offset="1" stop-color="#33013A"/>
</linearGradient>
<linearGradient id="paint60_linear_222_695" x1="2094.47" y1="1712.65" x2="487.736" y2="869.56" gradientUnits="userSpaceOnUse">
<stop stop-color="#22013C"/>
<stop offset="1" stop-color="#33013A"/>
</linearGradient>
<linearGradient id="paint61_linear_222_695" x1="2086.99" y1="1726.6" x2="495.217" y2="855.604" gradientUnits="userSpaceOnUse">
<stop stop-color="#22013C"/>
<stop offset="1" stop-color="#33013A"/>
</linearGradient>
<linearGradient id="paint62_linear_222_695" x1="2079.27" y1="1740.43" x2="502.937" y2="841.78" gradientUnits="userSpaceOnUse">
<stop stop-color="#22013C"/>
<stop offset="1" stop-color="#33013A"/>
</linearGradient>
<linearGradient id="paint63_linear_222_695" x1="2071.31" y1="1754.12" x2="510.9" y2="828.093" gradientUnits="userSpaceOnUse">
<stop stop-color="#22013C"/>
<stop offset="1" stop-color="#33013A"/>
</linearGradient>
<linearGradient id="paint64_linear_222_695" x1="2063.11" y1="1767.66" x2="519.099" y2="814.547" gradientUnits="userSpaceOnUse">
<stop stop-color="#22013C"/>
<stop offset="1" stop-color="#33013A"/>
</linearGradient>
<linearGradient id="paint65_linear_222_695" x1="2054.67" y1="1781.06" x2="527.534" y2="801.146" gradientUnits="userSpaceOnUse">
<stop stop-color="#22013C"/>
<stop offset="1" stop-color="#33013A"/>
</linearGradient>
<linearGradient id="paint66_linear_222_695" x1="2046.01" y1="1794.31" x2="536.202" y2="787.895" gradientUnits="userSpaceOnUse">
<stop stop-color="#22013C"/>
<stop offset="1" stop-color="#33013A"/>
</linearGradient>
<linearGradient id="paint67_linear_222_695" x1="2037.11" y1="1807.41" x2="545.1" y2="774.796" gradientUnits="userSpaceOnUse">
<stop stop-color="#22013C"/>
<stop offset="1" stop-color="#33013A"/>
</linearGradient>
<linearGradient id="paint68_linear_222_695" x1="2027.99" y1="1820.35" x2="554.223" y2="761.855" gradientUnits="userSpaceOnUse">
<stop stop-color="#22013C"/>
<stop offset="1" stop-color="#33013A"/>
</linearGradient>
<linearGradient id="paint69_linear_222_695" x1="2018.64" y1="1833.13" x2="563.571" y2="749.075" gradientUnits="userSpaceOnUse">
<stop stop-color="#22013C"/>
<stop offset="1" stop-color="#33013A"/>
</linearGradient>
<linearGradient id="paint70_linear_222_695" x1="2009.07" y1="1845.75" x2="573.143" y2="736.462" gradientUnits="userSpaceOnUse">
<stop stop-color="#22013C"/>
<stop offset="1" stop-color="#33013A"/>
</linearGradient>
<linearGradient id="paint71_linear_222_695" x1="1999.28" y1="1858.19" x2="582.933" y2="724.016" gradientUnits="userSpaceOnUse">
<stop stop-color="#22013C"/>
<stop offset="1" stop-color="#33013A"/>
</linearGradient>
<linearGradient id="paint72_linear_222_695" x1="1989.27" y1="1870.47" x2="592.936" y2="711.742" gradientUnits="userSpaceOnUse">
<stop stop-color="#22013C"/>
<stop offset="1" stop-color="#33013A"/>
</linearGradient>
<linearGradient id="paint73_linear_222_695" x1="1979.06" y1="1882.56" x2="603.155" y2="699.647" gradientUnits="userSpaceOnUse">
<stop stop-color="#22013C"/>
<stop offset="1" stop-color="#33013A"/>
</linearGradient>
<linearGradient id="paint74_linear_222_695" x1="1968.63" y1="1894.48" x2="613.581" y2="687.73" gradientUnits="userSpaceOnUse">
<stop stop-color="#22013C"/>
<stop offset="1" stop-color="#33013A"/>
</linearGradient>
<linearGradient id="paint75_linear_222_695" x1="1957.99" y1="1906.21" x2="624.215" y2="675.997" gradientUnits="userSpaceOnUse">
<stop stop-color="#22013C"/>
<stop offset="1" stop-color="#33013A"/>
</linearGradient>
<linearGradient id="paint76_linear_222_695" x1="1947.16" y1="1917.76" x2="635.052" y2="664.452" gradientUnits="userSpaceOnUse">
<stop stop-color="#22013C"/>
<stop offset="1" stop-color="#33013A"/>
</linearGradient>
<linearGradient id="paint77_linear_222_695" x1="1936.12" y1="1929.11" x2="646.088" y2="653.096" gradientUnits="userSpaceOnUse">
<stop stop-color="#22013C"/>
<stop offset="1" stop-color="#33013A"/>
</linearGradient>
<linearGradient id="paint78_linear_222_695" x1="1924.89" y1="1940.27" x2="657.321" y2="641.938" gradientUnits="userSpaceOnUse">
<stop stop-color="#22013C"/>
<stop offset="1" stop-color="#33013A"/>
</linearGradient>
<linearGradient id="paint79_linear_222_695" x1="1913.46" y1="1951.23" x2="668.747" y2="630.975" gradientUnits="userSpaceOnUse">
<stop stop-color="#22013C"/>
<stop offset="1" stop-color="#33013A"/>
</linearGradient>
<linearGradient id="paint80_linear_222_695" x1="1901.85" y1="1961.99" x2="680.362" y2="620.215" gradientUnits="userSpaceOnUse">
<stop stop-color="#22013C"/>
<stop offset="1" stop-color="#33013A"/>
</linearGradient>
<linearGradient id="paint81_linear_222_695" x1="1890.05" y1="1972.55" x2="692.164" y2="609.657" gradientUnits="userSpaceOnUse">
<stop stop-color="#22013C"/>
<stop offset="1" stop-color="#33013A"/>
</linearGradient>
<linearGradient id="paint82_linear_222_695" x1="1878.06" y1="1982.9" x2="704.149" y2="599.308" gradientUnits="userSpaceOnUse">
<stop stop-color="#22013C"/>
<stop offset="1" stop-color="#33013A"/>
</linearGradient>
<linearGradient id="paint83_linear_222_695" x1="1865.9" y1="1993.04" x2="716.311" y2="589.17" gradientUnits="userSpaceOnUse">
<stop stop-color="#22013C"/>
<stop offset="1" stop-color="#33013A"/>
</linearGradient>
<linearGradient id="paint84_linear_222_695" x1="1853.56" y1="2002.96" x2="728.65" y2="579.245" gradientUnits="userSpaceOnUse">
<stop stop-color="#22013C"/>
<stop offset="1" stop-color="#33013A"/>
</linearGradient>
<linearGradient id="paint85_linear_222_695" x1="1841.05" y1="2012.67" x2="741.158" y2="569.537" gradientUnits="userSpaceOnUse">
<stop stop-color="#22013C"/>
<stop offset="1" stop-color="#33013A"/>
</linearGradient>
<linearGradient id="paint86_linear_222_695" x1="1828.37" y1="2022.16" x2="753.835" y2="560.049" gradientUnits="userSpaceOnUse">
<stop stop-color="#22013C"/>
<stop offset="1" stop-color="#33013A"/>
</linearGradient>
<linearGradient id="paint87_linear_222_695" x1="1815.53" y1="2031.42" x2="766.676" y2="550.786" gradientUnits="userSpaceOnUse">
<stop stop-color="#22013C"/>
<stop offset="1" stop-color="#33013A"/>
</linearGradient>
<linearGradient id="paint88_linear_222_695" x1="1802.53" y1="2040.46" x2="779.676" y2="541.745" gradientUnits="userSpaceOnUse">
<stop stop-color="#22013C"/>
<stop offset="1" stop-color="#33013A"/>
</linearGradient>
<linearGradient id="paint89_linear_222_695" x1="1789.38" y1="2049.27" x2="792.833" y2="532.933" gradientUnits="userSpaceOnUse">
<stop stop-color="#22013C"/>
<stop offset="1" stop-color="#33013A"/>
</linearGradient>
<linearGradient id="paint90_linear_222_695" x1="1776.07" y1="2057.86" x2="806.139" y2="524.353" gradientUnits="userSpaceOnUse">
<stop stop-color="#22013C"/>
<stop offset="1" stop-color="#33013A"/>
</linearGradient>
<linearGradient id="paint91_linear_222_695" x1="1762.61" y1="2066.2" x2="819.596" y2="516.005" gradientUnits="userSpaceOnUse">
<stop stop-color="#22013C"/>
<stop offset="1" stop-color="#33013A"/>
</linearGradient>
<linearGradient id="paint92_linear_222_695" x1="1749.01" y1="2074.31" x2="833.194" y2="507.895" gradientUnits="userSpaceOnUse">
<stop stop-color="#22013C"/>
<stop offset="1" stop-color="#33013A"/>
</linearGradient>
<linearGradient id="paint93_linear_222_695" x1="1735.28" y1="2082.19" x2="846.934" y2="500.022" gradientUnits="userSpaceOnUse">
<stop stop-color="#22013C"/>
<stop offset="1" stop-color="#33013A"/>
</linearGradient>
<linearGradient id="paint94_linear_222_695" x1="1721.4" y1="2089.82" x2="860.806" y2="492.39" gradientUnits="userSpaceOnUse">
<stop stop-color="#22013C"/>
<stop offset="1" stop-color="#33013A"/>
</linearGradient>
<linearGradient id="paint95_linear_222_695" x1="1707.4" y1="2097.2" x2="874.811" y2="485.002" gradientUnits="userSpaceOnUse">
<stop stop-color="#22013C"/>
<stop offset="1" stop-color="#33013A"/>
</linearGradient>
<linearGradient id="paint96_linear_222_695" x1="1693.26" y1="2104.35" x2="888.943" y2="477.861" gradientUnits="userSpaceOnUse">
<stop stop-color="#22013C"/>
<stop offset="1" stop-color="#33013A"/>
</linearGradient>
<linearGradient id="paint97_linear_222_695" x1="1679.01" y1="2111.24" x2="903.199" y2="470.966" gradientUnits="userSpaceOnUse">
<stop stop-color="#22013C"/>
<stop offset="1" stop-color="#33013A"/>
</linearGradient>
<linearGradient id="paint98_linear_222_695" x1="1664.64" y1="2117.89" x2="917.57" y2="464.321" gradientUnits="userSpaceOnUse">
<stop stop-color="#22013C"/>
<stop offset="1" stop-color="#33013A"/>
</linearGradient>
<linearGradient id="paint99_linear_222_695" x1="1650.15" y1="2124.28" x2="932.057" y2="457.928" gradientUnits="userSpaceOnUse">
<stop stop-color="#22013C"/>
<stop offset="1" stop-color="#33013A"/>
</linearGradient>
</defs>
</svg>
